<svg width="666" height="851" viewBox="0 0 666 851" fill="none" xmlns="http://www.w3.org/2000/svg">
<rect width="666" height="851" fill="#FCE7F1"/>
<path d="M339.585 272.45C339.417 271.953 331.989 249.498 346.854 246.201C361.709 242.894 374.588 237.123 377.061 252.805C379.534 268.487 379.047 284.338 371.947 288.797C364.847 293.256 351.312 295.57 351.312 295.57L339.585 272.45Z" fill="white"/>
<path d="M266.423 451.893C266.423 454.573 253.713 601.097 253.713 601.097L263.426 600.947L293.849 457.243L266.423 451.893Z" fill="#A7CCE9"/>
<path d="M436.005 451.893C436.005 454.573 448.716 601.097 448.716 601.097L439.003 600.947L408.58 457.243L436.005 451.893Z" fill="#A7CCE9"/>
<path d="M229.079 424.726C227.608 413.569 225.192 382.205 230.596 374.214C235.523 366.935 287.892 350.729 287.892 350.729C287.892 350.729 372.79 348.087 379.206 351.103C385.623 354.12 454.439 354.935 458.972 366.261C463.496 377.587 464.283 410.515 454.102 447.687C448.744 467.257 403.503 471.866 342.977 472.25C289.287 472.587 256.907 470.835 245.583 459.135C234.277 447.434 230.699 437.008 229.079 424.726Z" fill="#A7CCE9"/>
<path d="M386.353 305.847C386.353 305.847 417.469 322.4 427.145 328.845C439.509 337.089 444.07 341.426 456.434 355.534C468.648 369.465 481.227 387.994 483.766 393.484C486.295 398.974 488.131 405.119 490.753 414.834C493.376 424.548 493.75 438.357 493.301 441.298C492.861 444.23 489.517 454.029 486.96 455.275C484.403 456.521 484.656 455.341 484.553 450.928C484.449 446.516 485.883 440.39 485.929 437.307C485.976 434.225 481.349 423.771 481.349 423.771C481.349 423.771 479.466 425.907 480.206 430.825C480.946 435.743 482.763 439.968 480.375 441.008C477.987 442.038 474.699 429.71 472.797 422.993C470.896 416.276 471.851 405.372 472.488 402.412C473.125 399.451 456.256 379.919 449.053 372.247C441.85 364.584 411.802 345.492 405.873 340.574C399.944 335.656 386.344 330.41 382.082 326.653C377.82 322.896 386.353 305.847 386.353 305.847Z" fill="white" stroke="#031F43" stroke-width="2" stroke-miterlimit="10" stroke-linecap="round" stroke-linejoin="round"/>
<path d="M304.049 603.533C296.377 595.045 298.26 568.543 322.398 561.611C334.602 558.107 345.692 548.393 352.212 540.889C354.31 538.472 358.281 540.28 357.85 543.456C357.326 547.4 356.239 551.681 354.104 555.025C348.708 563.475 345.486 576.581 345.486 576.581C345.486 576.581 352.436 553.264 368.641 547.4C384.845 541.535 425.655 538.069 435.228 523.427C444.8 508.785 448.369 489.88 465.594 482.405C476.169 477.815 484.206 472.306 489.591 467.941C492.205 465.824 495.914 468.568 494.696 471.707C492.355 477.73 488.308 484.859 481.443 489.721C467.411 499.661 467.13 509.965 464.629 517.357C462.138 524.739 457.698 531.399 457.698 531.399C457.698 531.399 478.361 518.312 484.477 504.148C490.603 489.984 501.824 477.674 517.007 467.772C524.866 462.648 531.123 454.245 535.329 447.341C537.174 444.315 541.82 445.954 541.379 449.467C540.649 455.341 538.841 462.329 534.748 468.831C525.156 484.044 511.987 504.326 511.987 504.326C511.987 504.326 527.545 501.309 534.167 490.03C535.291 488.11 536.565 486.311 537.904 484.644C540.218 481.758 544.779 484.381 543.524 487.848C542.138 491.651 540.92 496.082 540.18 501.085C537.37 519.933 519.761 534.931 510.31 544.992C500.859 555.053 508.325 567.663 499.745 583.485C492.158 597.462 477.059 608.001 462.634 611.346C427.116 619.571 430.554 596.6 358.927 607.167C319.522 612.966 309.95 610.053 304.049 603.533Z" fill="#E72A8B"/>
<path d="M381.333 594.755C381.333 594.755 413.366 573.461 417.291 564.637C421.225 555.812 438.263 533.901 442.731 531.062C447.198 528.224 452.603 524.476 452.603 524.476C452.603 524.476 442.59 535.334 439.789 552.44C436.989 569.546 433.636 574.398 433.636 574.398C433.636 574.398 439.724 572.375 446.327 565.087C452.931 557.798 462.738 550.857 462.738 550.857C462.738 550.857 453.905 571.269 451.544 579.626C449.193 587.982 440.67 594.877 440.67 594.877C440.67 594.877 446.374 595.542 451.46 592.366C453.259 591.242 457.464 586.848 457.464 586.848C457.464 586.848 453.127 598.521 444.182 601.06C435.237 603.608 423.426 599.476 412.739 596.441C402.051 593.406 381.333 594.755 381.333 594.755Z" fill="white"/>
<path d="M372.697 523.024L365.175 558.201L384.199 561.161L392.713 533.919L372.697 523.024Z" fill="white" stroke="#031F43" stroke-width="2" stroke-miterlimit="10" stroke-linecap="round" stroke-linejoin="round"/>
<path d="M220.527 563.063L208.21 594.427C208.21 594.427 212.978 607.224 220.134 608.413C227.29 609.603 231.795 602.165 231.795 602.165L246.117 566.258L220.527 563.063Z" fill="white" stroke="#031F43" stroke-width="2" stroke-miterlimit="10" stroke-linecap="round" stroke-linejoin="round"/>
<path d="M158.614 620.461C158.614 620.461 159.785 611.477 160.918 608.039C162.051 604.601 170.509 603.308 182.948 600.357C195.387 597.406 197.56 592.75 197.56 592.75C197.56 592.75 201.4 585.04 208.697 587.766C216.331 590.614 212.2 598.989 215.965 599.036C219.581 599.083 227.496 598.718 233.275 598.418C236.881 598.23 239.822 601.284 239.504 604.882L238.127 620.301C238.127 620.301 223.646 622.915 199.518 622.447C171.081 621.894 158.614 620.461 158.614 620.461Z" fill="#45D62F"/>
<path d="M155.972 620.938C156.169 619.908 157.227 619.327 158.417 619.571C164.056 620.742 238.314 618.774 238.314 618.774L237.864 625.838H155.204L155.972 620.938Z" fill="#45D62F"/>
<path d="M193.738 597.537C193.738 597.537 198.6 599.551 203.564 606.146" stroke="#031F43" stroke-width="2" stroke-miterlimit="10" stroke-linecap="round" stroke-linejoin="round"/>
<path d="M187.06 599.832C187.06 599.832 191.921 601.846 196.886 608.442" stroke="#031F43" stroke-width="2" stroke-miterlimit="10" stroke-linecap="round" stroke-linejoin="round"/>
<path d="M179.463 601.875C179.463 601.875 184.325 603.889 189.289 610.484" stroke="#031F43" stroke-width="2" stroke-miterlimit="10" stroke-linecap="round" stroke-linejoin="round"/>
<path d="M89.9472 581.424C80.4869 564.524 81.3018 548.749 91.3896 526.65C104.962 496.925 129.821 498.78 140.873 491.089C151.926 483.398 154.324 468.99 163.934 460.821C165.582 459.416 167.137 458.189 168.57 457.102C170.753 455.463 173.563 458.057 172.158 460.399C169.994 463.987 168.027 468.165 167.297 472.353C165.376 483.407 160.094 494.452 160.094 494.452C160.094 494.452 174.509 489.646 177.871 481C181.234 472.353 180.653 458.432 193.242 452.652C202.665 448.324 209.587 440.155 213.895 433.691C215.319 431.565 218.635 432.745 218.419 435.293C217.82 442.216 216.836 451.031 215.347 457.458C211.938 472.184 204.782 469.468 202.374 479.079C199.977 488.691 196.811 512.448 189.467 521.863C179.96 534.05 161.536 538.659 161.536 538.659C161.536 538.659 177.281 541.601 193.364 525.029C201.541 516.598 209.849 513.713 214.879 512.729C216.911 512.335 218.494 514.49 217.52 516.317C211.301 528.074 192.877 562.033 180.269 576.618C164.899 594.399 149.041 600.647 125.016 600.16C110.104 599.86 96.6724 593.434 89.9472 581.424Z" fill="#E72A8B"/>
<path d="M349.027 436.942L287.329 461.908L245.095 576.572C245.095 576.572 231.607 581.827 215.15 572.459C193.645 560.215 177.075 562.538 177.075 562.538C177.075 562.538 231.682 434.253 243.597 421.035C256.925 406.243 332.814 385.662 332.814 385.662L349.027 436.942Z" fill="#347CE1"/>
<path d="M388.976 384.303C390.559 384.266 445.896 403.227 450.411 415.265C454.917 427.302 442.431 456.456 429.318 482.639C416.204 508.832 399.232 550.426 399.232 550.426C399.232 550.426 383.225 543.409 370.224 529.46C357.223 515.511 345.711 517.657 345.711 517.657C345.711 517.657 363.845 482.611 373.493 466.536C383.14 450.46 390.943 437.617 390.943 437.617L358.89 429.382L388.976 384.303Z" fill="#347CE1"/>
<path d="M360.979 564.131C360.979 564.131 364.585 549.114 374.982 550.697C385.379 552.281 386.737 558.042 386.55 562.923C386.362 567.803 386.053 593.715 386.578 602.849C387.102 611.983 382.494 623.674 371.226 623.936C359.958 624.198 355.537 617.603 355.462 601.753C355.406 585.902 360.979 564.131 360.979 564.131Z" fill="#45D62F"/>
<path d="M355.874 606.915C355.874 606.915 356.296 617.144 369.924 618.765C383.562 620.386 386.091 607.964 386.091 607.964" stroke="#031F43" stroke-width="2" stroke-miterlimit="10" stroke-linecap="round" stroke-linejoin="round"/>
<path d="M367.554 569.227C367.554 569.227 374.495 564.562 380.902 570.127" stroke="#031F43" stroke-width="2" stroke-miterlimit="10" stroke-linecap="round" stroke-linejoin="round"/>
<path d="M366.795 575.888C366.795 575.888 373.736 571.223 380.143 576.787" stroke="#031F43" stroke-width="2" stroke-miterlimit="10" stroke-linecap="round" stroke-linejoin="round"/>
<path d="M366.206 583.185C366.206 583.185 373.146 578.52 379.553 584.085" stroke="#031F43" stroke-width="2" stroke-miterlimit="10" stroke-linecap="round" stroke-linejoin="round"/>
<path d="M399.991 353.726C399.991 353.726 408.262 344.059 413.151 340.227C421.262 333.866 431.266 325.117 431.266 325.117C431.266 325.117 396.853 298.474 384.499 296.132C376.312 294.577 351.65 295.045 343.726 294.867C335.802 294.699 324.824 291.223 310.437 294.465C295.31 297.875 280.623 320.629 280.623 320.629L311.804 337.014L298.382 396.22C298.382 396.22 311.196 421.054 366.758 398.505C380.527 392.922 386.484 392.519 393.003 391.807C399.523 391.105 404.983 390.927 404.983 390.927L399.991 353.726Z" fill="#F3B63F"/>
<path d="M338.106 278.37C338.106 278.37 311.57 276.019 327.896 244.683C334.706 231.606 348.175 234.95 354.732 228.13C361.288 221.31 363.798 211.549 371.432 208.204C379.057 204.86 389.388 207.118 389.388 207.118C389.388 207.118 384.836 209.394 382.166 212.467C379.497 215.54 378.289 219.156 378.289 219.156C378.289 219.156 389.126 208.055 406.379 208.588C423.632 209.122 431.528 205.778 435.678 202.565C439.827 199.352 442.637 193.469 442.637 193.469C442.637 193.469 445.175 204.036 441.429 210.593C437.682 217.151 436.08 217.151 436.08 217.151C436.08 217.151 438.581 217.188 440.895 215.408C442.047 214.528 444.136 211.221 444.136 211.221C444.136 211.221 447.592 216.504 444.745 224.505C442.15 231.784 438.356 235.081 434.872 238.425C431.397 241.77 430.236 248.73 430.236 248.73C430.236 248.73 432.072 242.978 435.547 240.168C439.022 237.358 442.103 236.29 442.103 236.29C442.103 236.29 437.289 242.042 434.479 252.749C431.669 263.457 426.854 273.752 417.89 276.834C408.927 279.907 397.284 277.771 392.338 280.179C387.393 282.586 383.908 289.406 381.501 291.823C379.094 294.23 374.43 295.411 374.43 295.411C374.43 295.411 358.15 295.514 358.394 295.195C359.134 294.249 357.757 291.879 357.757 291.879C357.757 291.879 366.327 289.931 370.374 282.455C374.992 273.921 375.769 263.41 374.776 258.051C373.446 250.847 361.682 249.161 354.703 250.52C345.075 252.402 343.201 268.506 343.201 268.506C343.201 268.506 341.216 266.145 338.808 265.471C336.401 264.796 338.106 278.37 338.106 278.37Z" fill="#031F43"/>
<path d="M342.995 270.005C342.995 270.005 342.358 266.098 339.08 265.761C335.811 265.424 333.685 270.024 334.837 273.293C335.661 275.635 337.787 277.565 338.939 278.474C339.408 278.848 339.661 279.429 339.604 280.029L338.452 292.488C338.078 296.507 340.644 300.226 344.541 301.275C345.534 301.537 346.62 301.753 347.81 301.884C348.662 301.978 349.524 302.006 350.367 301.978C354.235 301.884 357.476 299.008 358.188 295.195C358.394 294.071 359.583 292.329 358.45 292.469C350.123 293.49 347.669 287.935 347.753 287.701" fill="white"/>
<path d="M342.995 270.005C342.995 270.005 342.358 266.098 339.08 265.761C335.811 265.424 333.685 270.024 334.837 273.293C335.661 275.635 337.787 277.565 338.939 278.474C339.408 278.848 339.661 279.429 339.604 280.029L338.452 292.488C338.078 296.507 340.644 300.226 344.541 301.275C345.534 301.537 346.62 301.753 347.81 301.884C348.662 301.978 349.524 302.006 350.367 301.978C354.235 301.884 357.476 299.008 358.188 295.195C358.394 294.071 359.583 292.329 358.45 292.469C350.123 293.49 347.669 287.935 347.753 287.701" stroke="#031F43" stroke-width="2" stroke-miterlimit="10" stroke-linecap="round" stroke-linejoin="round"/>
<path d="M372.884 266.098C372.884 266.098 369.465 264.197 367.002 265.19C364.126 266.351 363.611 270.239 363.461 272.085C363.302 273.93 363.302 277.621 363.302 277.621C363.302 277.621 360.295 278.371 358.872 277.05" stroke="#031F43" stroke-width="2" stroke-miterlimit="10" stroke-linecap="round" stroke-linejoin="round"/>
<path d="M353.495 261.602C353.495 261.602 358.384 261.04 360.81 263.251" stroke="#031F43" stroke-width="2" stroke-miterlimit="10" stroke-linecap="round" stroke-linejoin="round"/>
<path d="M354.226 266.061C354.226 266.061 355.265 268.44 358.553 267.832" stroke="#031F43" stroke-width="2" stroke-miterlimit="10" stroke-linecap="round" stroke-linejoin="round"/>
<path d="M366.908 269.808C366.908 269.808 368.201 272.056 371.404 271.101" stroke="#031F43" stroke-width="2" stroke-miterlimit="10" stroke-linecap="round" stroke-linejoin="round"/>
<path d="M353.982 280.581L362.505 283.251C362.505 283.251 360.745 286.933 356.904 285.771C353.13 284.628 353.982 280.581 353.982 280.581Z" stroke="#031F43" stroke-width="2" stroke-miterlimit="10" stroke-linecap="round" stroke-linejoin="round"/>
<path d="M194.272 266.876C194.272 266.876 204.529 286.408 232.544 296.273" stroke="#031F43" stroke-width="2" stroke-miterlimit="10" stroke-linecap="round" stroke-linejoin="round"/>
<path d="M196.042 280.722C196.042 280.722 211.366 296.601 241.021 298.212" stroke="#031F43" stroke-width="2" stroke-miterlimit="10" stroke-linecap="round" stroke-linejoin="round"/>
<path d="M198.497 289.734C198.497 289.734 216.284 302.774 245.789 299.336" stroke="#031F43" stroke-width="2" stroke-miterlimit="10" stroke-linecap="round" stroke-linejoin="round"/>
<path d="M201.793 297.322C201.793 297.322 220.611 308.835 249.722 302.943" stroke="#031F43" stroke-width="2" stroke-miterlimit="10" stroke-linecap="round" stroke-linejoin="round"/>
<path d="M221.51 215.493C221.51 215.493 212.799 235.924 226.681 265.34C237.171 287.56 252.551 297.209 252.551 297.209" stroke="#031F43" stroke-width="2" stroke-miterlimit="10" stroke-linecap="round" stroke-linejoin="round"/>
<path d="M212.79 220.617C212.79 220.617 206.411 241.892 223.505 269.574C236.413 290.483 252.785 298.352 252.785 298.352" stroke="#031F43" stroke-width="2" stroke-miterlimit="10" stroke-linecap="round" stroke-linejoin="round"/>
<path d="M205.466 227.231C205.466 227.231 201.503 249.086 221.567 274.689C236.722 294.024 253.863 300.02 253.863 300.02" stroke="#031F43" stroke-width="2" stroke-miterlimit="10" stroke-linecap="round" stroke-linejoin="round"/>
<path d="M197.878 239.831C197.878 239.831 198.759 262.023 223.927 282.642C242.932 298.221 260.962 300.338 260.962 300.338" stroke="#031F43" stroke-width="2" stroke-miterlimit="10" stroke-linecap="round" stroke-linejoin="round"/>
<path d="M194.778 253.489C194.778 253.489 200.267 275.007 229.182 289.931C251.015 301.2 269.093 299.514 269.093 299.514" stroke="#031F43" stroke-width="2" stroke-miterlimit="10" stroke-linecap="round" stroke-linejoin="round"/>
<path d="M275.658 352.715C275.658 352.715 255.661 343.394 244.477 315.88" stroke="#031F43" stroke-width="2" stroke-miterlimit="10" stroke-linecap="round" stroke-linejoin="round"/>
<path d="M261.468 347.806C261.468 347.806 244 334.325 239.12 305.032" stroke="#031F43" stroke-width="2" stroke-miterlimit="10" stroke-linecap="round" stroke-linejoin="round"/>
<path d="M252.233 346.363C252.233 346.363 237.303 330.119 237.471 300.413" stroke="#031F43" stroke-width="2" stroke-miterlimit="10" stroke-linecap="round" stroke-linejoin="round"/>
<path d="M243.719 342.728C243.719 342.728 230.821 326.494 233.462 296.91" stroke="#031F43" stroke-width="2" stroke-miterlimit="10" stroke-linecap="round" stroke-linejoin="round"/>
<path d="M325.227 320.62C325.227 320.62 305.613 331.037 275.125 319.683C252.102 311.112 241.18 296.601 241.18 296.601" stroke="#031F43" stroke-width="2" stroke-miterlimit="10" stroke-linecap="round" stroke-linejoin="round"/>
<path d="M321.677 330.147C321.677 330.147 300.209 337.904 271.182 323.215C249.264 312.123 240.038 296.479 240.038 296.479" stroke="#031F43" stroke-width="2" stroke-miterlimit="10" stroke-linecap="round" stroke-linejoin="round"/>
<path d="M314.886 337.614C314.886 337.614 293.446 343.422 266.245 325.585C245.695 312.114 238.267 295.542 238.267 295.542" stroke="#031F43" stroke-width="2" stroke-miterlimit="10" stroke-linecap="round" stroke-linejoin="round"/>
<path d="M302.981 346.241C302.981 346.241 280.791 347.244 258.124 323.918C241.002 306.296 237.358 288.507 237.358 288.507" stroke="#031F43" stroke-width="2" stroke-miterlimit="10" stroke-linecap="round" stroke-linejoin="round"/>
<path d="M289.634 350.485C289.634 350.485 267.725 346.832 250.416 319.29C237.34 298.484 237.49 280.328 237.49 280.328" stroke="#031F43" stroke-width="2" stroke-miterlimit="10" stroke-linecap="round" stroke-linejoin="round"/>
<path d="M235.279 212.13C235.279 212.13 226.981 220.392 227.73 241.864C228.198 255.316 235.514 281.509 250.847 297.781C266.18 314.053 308.414 321.847 327.756 313.116" stroke="#031F43" stroke-width="2" stroke-miterlimit="10" stroke-linecap="round" stroke-linejoin="round"/>
<path d="M244.44 211.418C244.44 211.418 235.373 219.296 234.633 241.882C234.193 255.335 236.712 275.916 254.097 293.453C269.842 309.332 308.451 313.922 327.802 305.191" stroke="#031F43" stroke-width="2" stroke-miterlimit="10" stroke-linecap="round" stroke-linejoin="round"/>
<path d="M288.973 338.966C307.172 325.193 305.083 291.766 284.307 264.306C263.531 236.847 231.935 225.752 213.736 239.525C195.537 253.299 197.626 286.725 218.402 314.185C239.178 341.645 270.773 352.74 288.973 338.966Z" stroke="#031F43" stroke-width="2" stroke-miterlimit="10" stroke-linecap="round" stroke-linejoin="round"/>
<path d="M308.413 343.525C308.413 343.525 324.908 334.653 327.559 313.819C329.872 295.664 326.903 266.942 297.192 236.571C271.069 209.863 234.811 202.902 211.376 221.385C192.558 236.233 190.91 264.956 195.865 282.455C200.819 299.954 209.043 313.173 221.613 326.025C264.184 369.605 308.413 343.525 308.413 343.525Z" stroke="#031F43" stroke-width="2" stroke-miterlimit="10" stroke-linecap="round" stroke-linejoin="round"/>
<path d="M265.093 306.006L339.717 359.319L322.567 382.495L251.877 317.594L265.093 306.006Z" fill="white" stroke="#031F43" stroke-width="2" stroke-miterlimit="10" stroke-linecap="round" stroke-linejoin="round"/>
<path d="M309.678 449.757C309.678 449.757 298.157 432.577 297.061 429.963C295.975 427.349 300.761 408.866 319.457 382.111C338.153 355.356 353.814 342.747 360.988 341.22C368.163 339.693 379.694 339.262 388.17 340.789C396.647 342.316 411.221 350.794 411.221 350.794L309.678 449.757Z" fill="white" stroke="#031F43" stroke-width="2" stroke-miterlimit="10" stroke-linecap="round" stroke-linejoin="round"/>
<path d="M383.89 348.078C379.085 348.302 374.57 350.382 371.235 353.858C368.8 356.396 365.615 360.097 361.625 365.465C350.741 380.107 311.701 436.427 309.819 442.806C307.936 449.186 309.819 452.943 318.08 451.069C326.341 449.195 357.495 439.434 362.749 435.677C368.004 431.921 413.807 357.211 413.432 353.08C413.057 348.949 407.803 348.949 397.293 348.199C392.263 347.834 387.496 347.909 383.89 348.078Z" fill="white" stroke="#031F43" stroke-width="2" stroke-miterlimit="10" stroke-linecap="round" stroke-linejoin="round"/>
<path d="M266.789 322.466C266.789 322.466 266.789 318.756 265.609 318.25C264.429 317.744 259.043 316.732 257.694 317.407C256.345 318.081 255.165 323.974 254.491 325.491C253.816 327.009 259.474 335.824 259.474 339.197C259.474 342.569 251.802 344.574 249.105 346.888C246.482 349.136 243.719 351.769 242.033 356.659C240.347 361.539 238.83 368.453 240.347 369.961C241.864 371.479 258.706 377.371 264.429 370.298C270.152 363.226 270.489 355.647 274.872 353.286C279.256 350.925 281.785 347.647 286.159 342.766C290.533 337.885 295.872 333.192 296.041 331.168C296.209 329.145 294.533 327.44 294.533 327.44C294.533 327.44 296.378 325.098 295.591 323.637C294.336 321.285 290.758 321.379 290.758 321.379C290.758 321.379 292.903 318.793 291.386 317.107C289.868 315.421 286.665 316.386 286.665 316.386C286.665 316.386 286.047 312.957 283.799 313.013C281.092 313.079 272.68 317.894 270.667 319.749C268.634 321.622 266.789 322.466 266.789 322.466Z" fill="white" stroke="#031F43" stroke-width="2" stroke-miterlimit="10" stroke-linecap="round" stroke-linejoin="round"/>
<path d="M286.655 316.395C286.655 316.395 282.843 318.615 279.583 320.751C276.324 322.887 271.547 327.028 271.547 327.028" stroke="#031F43" stroke-width="2" stroke-miterlimit="10" stroke-linecap="round" stroke-linejoin="round"/>
<path d="M290.795 321.416C290.795 321.416 286.983 323.637 283.723 325.772C280.464 327.908 275.687 332.049 275.687 332.049" stroke="#031F43" stroke-width="2" stroke-miterlimit="10" stroke-linecap="round" stroke-linejoin="round"/>
<path d="M294.813 326.569C294.813 326.569 291.001 328.789 287.742 330.925C284.482 333.061 279.705 337.201 279.705 337.201" stroke="#031F43" stroke-width="2" stroke-miterlimit="10" stroke-linecap="round" stroke-linejoin="round"/>
<path d="M266.788 322.466C266.788 322.466 263.651 325.276 262.143 325.276C260.635 325.276 259.379 324.901 259.379 324.901" stroke="#031F43" stroke-width="2" stroke-miterlimit="10" stroke-linecap="round" stroke-linejoin="round"/>
<path d="M252.149 212.027C252.149 212.027 243.41 222.181 241.283 238.482C238.202 262.098 246.004 275.804 246.004 275.804" stroke="#031F43" stroke-width="2" stroke-miterlimit="10" stroke-linecap="round" stroke-linejoin="round"/>
<path d="M258.05 214.397C258.05 214.397 249.31 224.552 247.184 240.852C244.103 264.468 251.905 278.174 251.905 278.174" stroke="#031F43" stroke-width="2" stroke-miterlimit="10" stroke-linecap="round" stroke-linejoin="round"/>
<path d="M265.927 216.589C265.927 216.589 256.429 226.041 253.057 242.126C248.158 265.433 254.884 279.701 254.884 279.701" stroke="#031F43" stroke-width="2" stroke-miterlimit="10" stroke-linecap="round" stroke-linejoin="round"/>
<path d="M273.757 219.989C273.757 219.989 263.697 228.833 259.332 244.683C253.01 267.644 258.836 282.296 258.836 282.296" stroke="#031F43" stroke-width="2" stroke-miterlimit="10" stroke-linecap="round" stroke-linejoin="round"/>
<path d="M281.194 223.84C281.194 223.84 270.975 232.542 264.896 246.519C257.815 262.82 256.157 282.661 256.157 282.661" stroke="#031F43" stroke-width="2" stroke-miterlimit="10" stroke-linecap="round" stroke-linejoin="round"/>
<path d="M287.807 228.57C287.807 228.57 277.804 236.196 270.329 249.48C261.609 264.965 257.937 284.535 257.937 284.535" stroke="#031F43" stroke-width="2" stroke-miterlimit="10" stroke-linecap="round" stroke-linejoin="round"/>
<path d="M293.952 233.526C293.952 233.526 284.267 242.266 278.6 250.06C269.655 262.361 261.356 285.022 261.356 285.022" stroke="#031F43" stroke-width="2" stroke-miterlimit="10" stroke-linecap="round" stroke-linejoin="round"/>
<path d="M299.553 239.091C299.553 239.091 288.51 249.583 282.374 256.908C270.114 271.532 263.782 288.422 263.782 288.422" stroke="#031F43" stroke-width="2" stroke-miterlimit="10" stroke-linecap="round" stroke-linejoin="round"/>
<path d="M305.051 245.339C305.051 245.339 298.204 252.421 288.987 261.405C279.78 270.38 260.878 288.806 260.878 288.806" stroke="#031F43" stroke-width="2" stroke-miterlimit="10" stroke-linecap="round" stroke-linejoin="round"/>
<path d="M310.006 251.953C310.006 251.953 302.213 259.981 291.113 269.433C281.316 277.771 261.993 291.036 261.993 291.036" stroke="#031F43" stroke-width="2" stroke-miterlimit="10" stroke-linecap="round" stroke-linejoin="round"/>
<path d="M314.474 260.047C314.474 260.047 306.006 267.363 294.111 275.794C283.62 283.232 262.77 292.338 262.77 292.338" stroke="#031F43" stroke-width="2" stroke-miterlimit="10" stroke-linecap="round" stroke-linejoin="round"/>
<path d="M320.047 269.443C320.047 269.443 308.058 279.045 293.718 283.888C284.107 287.139 265.599 292.441 265.599 292.441" stroke="#031F43" stroke-width="2" stroke-miterlimit="10" stroke-linecap="round" stroke-linejoin="round"/>
<path d="M326.782 298.015C326.782 298.015 305.051 308.17 268.212 298.961" stroke="#031F43" stroke-width="2" stroke-miterlimit="10" stroke-linecap="round" stroke-linejoin="round"/>
<path d="M326.013 289.228C326.013 289.228 305.192 301.135 267.716 294.989" stroke="#031F43" stroke-width="2" stroke-miterlimit="10" stroke-linecap="round" stroke-linejoin="round"/>
<path d="M323.269 279.157C323.269 279.157 304.536 294.137 266.554 293.837" stroke="#031F43" stroke-width="2" stroke-miterlimit="10" stroke-linecap="round" stroke-linejoin="round"/>
<path d="M236.816 272.628C236.816 272.628 210.168 300.441 205.531 308.788C200.895 317.135 199.508 327.103 201.129 329.417C202.749 331.73 221.061 344.255 234.043 339.384C247.025 334.513 271.125 304.385 271.125 304.385C271.125 304.385 270.891 289.781 260.925 281.209C250.95 272.628 236.816 272.628 236.816 272.628Z" fill="white" stroke="#031F43" stroke-width="2" stroke-miterlimit="10" stroke-linecap="round" stroke-linejoin="round"/>
<path d="M390.943 437.607C390.943 437.607 394.886 430.169 403.044 426.094" stroke="#031F43" stroke-width="2" stroke-miterlimit="10" stroke-linecap="round" stroke-linejoin="round"/>
<path d="M106.704 585.827C112.324 589.537 124.454 593.434 135.066 592.872C145.679 592.3 163.016 580.712 163.016 580.712C163.016 580.712 153.191 578.352 148.048 580.413C142.906 582.483 134.026 580.506 134.026 580.506C134.026 580.506 141.698 572.965 151.757 570.023C161.817 567.082 170.978 550.988 170.978 550.988C170.978 550.988 158.717 560.908 150.952 561.63C143.187 562.351 130.711 556.281 123.068 562.061C107.819 573.602 92.7104 568.478 92.7104 568.478C92.7104 568.478 97.3282 579.644 106.704 585.827Z" fill="white"/>
</svg>
