<svg width="430" height="605" viewBox="0 0 430 605" fill="none" xmlns="http://www.w3.org/2000/svg">
<g clip-path="url(#clip0_3850_3760)">
<path d="M213 605C347.205 605 456 496.205 456 362C456 227.795 347.205 119 213 119C78.7948 119 -30 227.795 -30 362C-30 496.205 78.7948 605 213 605Z" fill="black"/>
<path d="M131.226 104.478C131.173 104.655 131.692 108.052 130.448 109.863C129.204 111.673 127.688 111.502 127.688 111.502L131.031 113.974C131.031 113.974 132.482 124.489 128.991 126.742C127.818 127.503 126.414 127.816 124.928 127.845C124.197 127.857 125.813 130.517 124.545 131.561C122.776 133.017 119.156 136.131 114.203 129.06C111.974 125.881 110.883 125.887 112.086 123.77C112.622 122.826 119.798 120.614 119.798 120.614C119.798 120.614 116.986 121.806 114.957 121.664C112.935 121.517 110.476 118.42 108.701 115.554C106.932 112.688 103.465 100.167 103.465 100.167C103.465 100.167 110.093 98.551 113.666 98.1559C117.245 97.7607 121.75 100.362 124.51 99.6303C127.275 98.8931 131.226 104.478 131.226 104.478Z" fill="white"/>
<path d="M93.0331 159.652C92.8975 159.652 88.6814 158.083 86.706 158.219C84.7307 158.354 82.7553 158.266 82.7553 158.266C82.7553 158.266 78.1324 154.633 75.7148 152.433C73.2913 150.233 56.0201 131.39 53.9563 130.399C51.8925 129.414 44.9404 124.519 44.9404 124.519C44.9404 124.519 46.5561 127.167 46.4677 127.031C46.3792 126.896 42.2516 126.583 40.005 128.064C37.7643 129.544 35.6533 132.593 35.6533 132.593L40.8128 135.194C40.8128 135.194 37.6699 138.738 36.5496 141.387C35.4292 144.035 33.1826 153.996 33.1826 153.996C33.1826 153.996 48.8853 150.628 55.6133 151.932C62.3413 153.235 70.6437 156.597 71.54 157.364C72.4363 158.124 72.2122 158.396 72.1709 158.98C72.1238 159.563 73.0259 162.524 73.9635 163.963C74.9069 165.396 75.3079 166.34 76.6523 166.882C77.9968 167.419 79.6124 168.05 79.6124 168.05C79.6124 168.05 81.1809 169.843 83.1091 170.339C85.0373 170.834 85.3086 170.97 86.7001 170.875C88.0917 170.781 91.8597 170.244 91.8597 170.244C91.8597 170.244 95.091 174.148 96.6123 173.836C98.1337 173.523 99.3484 171.011 98.4049 168.092C97.4614 165.172 93.0331 159.652 93.0331 159.652Z" fill="white"/>
<path d="M255.007 47.978C255.007 47.978 245.26 46.3384 240.537 48.1726C235.808 50.0068 233.685 52.419 229.729 68.0539C225.772 83.6888 251.729 63.2295 252.307 61.012C252.884 58.7885 255.007 47.978 255.007 47.978Z" fill="#4B69FD"/>
<path d="M345.785 65.5297C345.908 65.1936 353.586 39.4146 353.586 39.4146C353.586 39.4146 340.955 30.3674 334.64 30.3674C328.325 30.3674 323.036 39.5856 319.792 46.5862C316.549 53.5868 316.72 59.9033 316.72 59.9033L345.785 65.5297Z" fill="#A7CCE9"/>
<path d="M353.586 39.4207L369 50.473L367.184 57.108L348.922 56.1997L353.586 39.4207Z" fill="#4B69FD"/>
<path d="M321.674 56.6596C321.674 56.6596 331.403 33.2751 330.035 32.0778C328.667 30.8806 316.55 24.7352 313.82 25.0772C311.089 25.4193 261.593 26.1034 259.205 28.1499C256.817 30.1965 251.864 55.8044 249.989 61.4368C248.114 67.0691 237.871 105.304 238.726 108.035C239.581 110.765 277.98 116.74 282.927 112.134C287.88 107.528 321.674 56.6596 321.674 56.6596Z" fill="#4B69FD"/>
<path d="M345.785 65.5301C345.785 65.5301 304.061 46.4686 297.368 44.9234C290.676 43.3782 281.141 47.2412 277.019 57.5445C272.897 67.8479 231.751 154.438 231.751 154.438L319.728 165.491L345.785 65.5301Z" fill="#A7CCE9"/>
<path d="M263.409 158.024C263.409 158.024 266.953 147.679 271.806 133.454C276.659 119.228 290.887 66.6561 293.564 63.6482C296.241 60.6404 305.116 65.8245 310.635 67.8356C316.154 69.8467 341.598 81.0583 341.598 81.0583" stroke="#031F43" stroke-width="2" stroke-miterlimit="10" stroke-linecap="round" stroke-linejoin="round"/>
<path d="M324.434 148.452L339.847 159.504L338.031 166.139L319.77 165.231L324.434 148.452Z" fill="#4B69FD"/>
<path d="M319.551 14.5204C319.551 14.5204 310.276 21.8336 304.444 26.9293C298.612 32.0249 292.256 38.3473 290.734 38.4829C288.547 38.6776 285.769 34.9207 284.342 31.0105C282.91 27.1003 285.174 26.7818 285.174 26.7818C285.174 26.7818 299.29 16.8028 303.359 13.5237C307.428 10.2446 308.996 7.36057 308.996 7.36057C308.996 7.36057 312.204 6.24 313.118 7.83828C314.038 9.43657 319.551 14.5204 319.551 14.5204Z" fill="#F3B63F"/>
<path d="M340.932 3.73916C340.932 3.73916 340.26 7.68474 339.7 9.18277C339.14 10.6808 335.384 11.1054 329.841 12.1965C324.298 13.2876 323.26 15.3046 323.26 15.3046C323.26 15.3046 321.432 18.6427 318.254 17.3158C314.934 15.9298 316.898 12.3027 315.235 12.2142C313.637 12.1316 310.14 12.1552 307.581 12.1906C305.983 12.2083 304.739 10.8164 304.945 9.22995L305.818 2.44166C305.818 2.44166 312.257 1.53341 322.9 2.15857C335.454 2.88989 340.932 3.73916 340.932 3.73916Z" fill="#FF5613"/>
<path d="M341.982 3.56813C341.876 4.01636 341.404 4.25817 340.879 4.12842C338.408 3.51505 305.735 3.114 305.735 3.114L306.054 0L342.713 0.477715L341.982 3.56813Z" fill="#FF5613"/>
<path d="M325.035 13.2582C325.035 13.2582 322.924 12.2851 320.843 9.28906" stroke="#031F43" stroke-width="2" stroke-miterlimit="10" stroke-linecap="round" stroke-linejoin="round"/>
<path d="M328.019 12.3615C328.019 12.3615 325.908 11.3884 323.826 8.39233" stroke="#031F43" stroke-width="2" stroke-miterlimit="10" stroke-linecap="round" stroke-linejoin="round"/>
<path d="M331.409 11.589C331.409 11.589 329.298 10.6159 327.217 7.61987" stroke="#031F43" stroke-width="2" stroke-miterlimit="10" stroke-linecap="round" stroke-linejoin="round"/>
<path d="M337.477 124.272C337.477 124.272 329.67 126.106 322.187 128.087C314.704 130.075 306.208 132.929 304.781 132.381C302.734 131.585 301.903 126.99 302.357 122.85C302.805 118.71 304.975 119.424 304.975 119.424C304.975 119.424 322.052 116.722 327.146 115.584C332.247 114.446 334.93 112.553 334.93 112.553C334.93 112.553 338.297 112.966 338.415 114.806C338.533 116.652 337.477 124.272 337.477 124.272Z" fill="#F3B63F"/>
<path d="M335.697 115.696C335.709 116.227 332.695 118.008 333.379 120.697C334.069 123.387 337.595 126.312 337.595 126.312C337.595 126.312 343.28 124.295 345.632 123.906C347.985 123.516 356.423 123.499 358.092 123.44C359.761 123.381 364.266 122.927 365.97 121.116C367.149 119.86 371.188 114.782 364.637 111.355C358.192 107.982 354.867 108.353 350.934 107.528C346.995 106.702 343.48 104.307 342.319 104.537C341.157 104.773 333.863 111.273 333.491 112.741C333.12 114.21 335.697 115.696 335.697 115.696Z" fill="#FF5613"/>
<path d="M340.555 106.478C340.555 106.478 345.844 109.203 350.054 109.964C354.264 110.724 366.5 112.116 367.337 118.675" stroke="#031F43" stroke-width="2" stroke-miterlimit="10" stroke-linecap="round" stroke-linejoin="round"/>
<path d="M339.818 117.554C339.818 117.554 338.25 120.302 341.322 123.387" stroke="#031F43" stroke-width="2" stroke-miterlimit="10" stroke-linecap="round" stroke-linejoin="round"/>
<path d="M343.197 116.923C343.197 116.923 341.629 119.671 344.701 122.756" stroke="#031F43" stroke-width="2" stroke-miterlimit="10" stroke-linecap="round" stroke-linejoin="round"/>
<path d="M346.734 116.728C346.734 116.728 345.166 119.477 348.238 122.561" stroke="#031F43" stroke-width="2" stroke-miterlimit="10" stroke-linecap="round" stroke-linejoin="round"/>
<path d="M244.246 94.9475C244.246 94.9475 262.997 104.691 269.106 108.518C275.22 112.346 281.825 117.371 281.825 117.371C281.825 117.371 306.16 116.238 312.599 114.345C319.038 112.452 322.906 112.423 322.906 112.423C322.906 112.423 325.707 117.011 327.954 121.605C330.2 126.2 330.79 130.617 330.79 130.617C330.79 130.617 308.524 135.766 296.92 136.591C285.315 137.417 280.704 137.452 275.35 136.385C269.996 135.318 254.299 131.567 246.899 128.305C239.499 125.044 225.211 116.716 225.211 116.716C225.211 116.716 224.787 105.428 228.443 101.529C232.099 97.6192 244.246 94.9475 244.246 94.9475Z" fill="#031F43"/>
<path d="M204.373 81.601C204.373 81.601 216.131 72.5833 226.727 67.0925C234.581 63.0172 253.197 54.2709 256.682 51.4871C260.167 48.6975 265.597 46.191 266.293 45.2178C266.989 44.2447 284.962 24.0391 290.811 19.1616C296.661 14.2842 299.45 12.8923 299.45 12.8923C299.45 12.8923 304.58 14.2606 307.882 16.9795C311.184 19.7042 311.479 23.8798 311.479 23.8798C311.479 23.8798 302.976 31.1871 299.308 35.3096C296.737 38.2054 292.333 44.9701 292.333 44.9701C292.333 44.9701 284.343 56.1817 278.688 63.1587C273.033 70.1358 253.716 89.0616 241.716 98.1146C235.265 102.98 223.283 110.117 222.558 110.117C221.833 110.117 204.373 81.601 204.373 81.601Z" fill="#031F43"/>
<path d="M169.241 140.307C169.241 140.307 188.464 153.288 193.63 155.57C198.795 157.853 203.96 159.775 210.812 156.414C217.658 153.046 227.482 153.724 233.042 154.733C237.978 155.629 240.59 153.748 244.057 146.417C246.546 141.162 246.21 131.366 244.889 127.88C243.568 124.395 225.613 112.977 213.112 115.377C200.623 117.778 169.241 140.307 169.241 140.307Z" fill="#4B69FD"/>
<path d="M230.324 118.202C230.324 118.202 222.016 114.935 215.052 117.276C208.088 119.624 200.346 123.245 198.359 124.454C196.372 125.663 194.951 128.364 193.317 130.21C191.684 132.056 189.909 134.616 187.067 136.037C184.225 137.458 170.657 142.147 166.965 142.359C163.274 142.572 159.294 142.501 159.294 142.501C159.294 142.501 156.593 155.429 156.169 158.696C155.744 161.964 154.818 168.357 151.693 171.482C148.568 174.608 146.298 174.467 143.597 173.612C140.896 172.756 140.896 173.116 139.688 171.907C138.479 170.698 135.778 167.502 135.778 167.502C135.778 167.502 121.149 169.489 117.664 170.557C114.185 171.624 102.816 172.904 100.9 173.399C98.9834 173.895 96.8488 173.895 96.8488 173.895C96.8488 173.895 98.1992 172.756 97.3442 170.132C96.4892 167.507 92.0195 158.979 92.0195 158.979L112.758 157.983L126.184 152.226C126.184 152.226 123.201 145.621 122.275 144.058C121.349 142.495 120.925 141.858 119.928 140.791C118.932 139.723 117.941 137.736 117.87 136.739C117.799 135.742 117.658 134.468 117.658 134.468L125.259 130.877L124.74 126.076C124.74 126.076 128.578 127.037 129.616 125.191C130.648 123.345 130.943 116.179 131.391 114.109C131.833 112.039 142.323 103.546 148.456 102.143C154.588 100.739 158.132 102.066 167.809 98.8931C177.485 95.7143 176.895 95.3486 181.105 92.6887C185.316 90.0288 204.591 76.5112 204.591 76.5112C204.591 76.5112 222.099 96.534 223.573 98.3034C225.053 100.079 227.783 102.957 228.597 105.322C229.416 107.681 230.324 118.202 230.324 118.202Z" fill="#F3B63F"/>
<path d="M150.201 97.7193C150.366 97.7783 152.843 98.6039 155.113 96.8759C159.636 93.4198 158.657 85.3812 158.657 85.3812C158.657 85.3812 153.88 90.1879 149.67 88.3006C145.46 86.4133 139.351 82.2731 130.023 86.3013C125.17 88.3949 124.173 87.8583 118.66 87.3629C113.153 86.8674 110.045 90.701 110.045 90.701C110.045 90.701 106.696 89.2678 103.158 93.296C100.611 96.1977 100.298 99.6242 100.404 101.37C100.558 104.048 102.179 106.643 112.156 101.942C115.093 100.556 119.81 103.01 123.312 105.239C125.819 106.831 126.355 104.006 128.065 104.578C129.362 105.015 130.554 106.908 129.787 108.376C128.891 110.087 126.992 111.201 126.992 111.201C126.992 111.201 128.059 114.799 128.796 115.059C131.208 115.926 134.952 112.888 138.585 108.424C140.124 106.536 142.046 106.79 144.151 107.238C146.787 107.793 148.562 106.106 149.045 105.817C149.122 105.776 148.226 105.87 147.512 105.728C146.94 105.616 146.51 105.262 146.575 105.251C148.285 105.056 149.21 105.003 151.292 104.437C155.732 103.24 154.912 98.0672 154.912 98.0672C154.912 98.0672 153.527 99.0345 152.229 98.8045C150.891 98.5627 150.26 97.8018 150.201 97.7193Z" fill="#031F43"/>
<path d="M103.399 102.054C103.399 102.054 109.296 120.16 114.261 121.086C119.621 122.083 124.138 116.321 124.138 116.321" stroke="#031F43" stroke-width="2" stroke-miterlimit="10" stroke-linecap="round" stroke-linejoin="round"/>
<path d="M112.159 116.705C112.786 116.528 113.112 115.736 112.886 114.937C112.661 114.138 111.97 113.633 111.343 113.81C110.716 113.987 110.391 114.778 110.616 115.578C110.842 116.377 111.533 116.882 112.159 116.705Z" stroke="#031F43" stroke-width="2" stroke-miterlimit="10" stroke-linecap="round" stroke-linejoin="round"/>
<path d="M109.881 111.691C109.073 111.762 108.625 111.609 108.719 111.19C108.86 110.553 108.943 108.17 108.943 108.17C108.943 108.17 108.701 106.601 107.339 106.324C105.647 105.982 105.293 106.607 105.293 106.607" stroke="#031F43" stroke-width="2" stroke-miterlimit="10" stroke-linecap="round" stroke-linejoin="round"/>
<path d="M112.434 106.902C112.434 106.902 113.495 105.28 116.255 106.401" stroke="#031F43" stroke-width="2" stroke-miterlimit="10" stroke-linecap="round" stroke-linejoin="round"/>
<path d="M118.795 124.69C118.795 124.69 123.524 124.613 121.844 122.478C120.163 120.343 113.588 121.139 112.214 123.504C110.841 125.869 112.061 127.208 113.512 128.276C114.962 129.343 118.488 132.929 118.488 132.929" stroke="#031F43" stroke-width="2" stroke-miterlimit="10" stroke-linecap="round" stroke-linejoin="round"/>
<path d="M122.534 123.546C122.534 123.546 123.755 122.938 124.215 124.46C124.675 125.982 125.205 130.794 125.205 130.794" stroke="#031F43" stroke-width="2" stroke-miterlimit="10" stroke-linecap="round" stroke-linejoin="round"/>
<path d="M82.7676 158.325C82.7676 158.325 88.7172 157.499 91.4651 158.979" stroke="#031F43" stroke-width="2" stroke-miterlimit="10" stroke-linecap="round" stroke-linejoin="round"/>
<path d="M95.9993 168.905C95.9993 168.905 88.4811 170.669 86.2581 170.775C84.0351 170.881 83.1978 167.743 82.0302 165.838C80.8686 163.933 80.9747 162.135 81.9241 161.816C82.8793 161.498 85.8394 165.201 85.8394 165.201" stroke="#031F43" stroke-width="2" stroke-miterlimit="10" stroke-linecap="round" stroke-linejoin="round"/>
<path d="M81.3457 164.488C81.3457 164.488 79.7006 162.023 78.9635 162.978C78.2206 163.934 78.7513 166.257 79.8126 167.95C80.8681 169.643 83.8341 170.704 84.8896 170.598" stroke="#031F43" stroke-width="2" stroke-miterlimit="10" stroke-linecap="round" stroke-linejoin="round"/>
<path d="M78.2211 164.783C78.2211 164.783 74.7303 159.068 73.2502 158.643C71.7702 158.218 72.0886 160.442 72.8257 161.922C73.5628 163.403 74.6241 165.308 75.7858 166.263C76.9474 167.218 79.8072 167.956 79.8072 167.956" stroke="#031F43" stroke-width="2" stroke-miterlimit="10" stroke-linecap="round" stroke-linejoin="round"/>
<path d="M89.8845 165.632C89.8845 165.632 82.0597 157.994 79.4829 156.084C76.9061 154.173 58.1844 134.109 53.7089 130.499C48.7439 126.489 44.0679 124.1 44.0679 124.1C44.0679 124.1 47.883 128.972 48.5552 130.399C49.2215 131.832 48.9385 133.071 48.9385 133.071C48.9385 133.071 46.745 131.637 42.6409 134.215C38.5369 136.792 35.9601 141.758 35.1935 144.618C34.4329 147.485 33 154.072 33 154.072C33 154.072 45.9784 150.445 56.4803 151.878C66.9821 153.312 73.2502 158.637 73.2502 158.637" stroke="#031F43" stroke-width="2" stroke-miterlimit="10" stroke-linecap="round" stroke-linejoin="round"/>
<path d="M48.9385 133.076L81.924 161.816" stroke="#031F43" stroke-width="2" stroke-miterlimit="10" stroke-linecap="round" stroke-linejoin="round"/>
<path d="M46.1667 126.966C46.1667 126.966 42.446 126.778 39.6746 128.305C36.9091 129.833 35.3818 132.699 35.3818 132.699L40.9187 135.371" stroke="#031F43" stroke-width="2" stroke-miterlimit="10" stroke-linecap="round" stroke-linejoin="round"/>
<path d="M162.86 129.378C162.554 132.215 159.01 141.026 158.503 145.686C157.996 150.345 155.767 158.773 155.342 163.349C154.912 167.92 150.413 173.853 147.912 174.207C145.412 174.561 141.296 173.246 139.84 172.066C135.842 168.811 123.123 147.49 122.551 145.414C121.979 143.344 121.124 141.486 119.691 140.413C118.264 139.34 117.12 135.052 117.905 134.268C118.689 133.483 127.41 130.086 127.41 130.086" stroke="#031F43" stroke-width="2" stroke-miterlimit="10" stroke-linecap="round" stroke-linejoin="round"/>
<path d="M131.668 115.808C131.361 115.808 131.361 120.568 133.083 124.519C134.805 128.471 137.44 132.823 138.549 135.66C139.663 138.497 139.663 147.715 139.864 151.46C140.064 155.205 140.672 159.664 140.672 159.664" stroke="#031F43" stroke-width="2" stroke-miterlimit="10" stroke-linecap="round" stroke-linejoin="round"/>
<path d="M91.6948 158.897C93.222 160.985 97.4322 169.766 97.4852 171.311C97.5324 172.733 97.5678 173.718 96.4415 173.883C95.3153 174.048 91.624 170.114 91.624 170.114" stroke="#031F43" stroke-width="2" stroke-miterlimit="10" stroke-linecap="round" stroke-linejoin="round"/>
<path d="M96.4414 173.877C96.4414 173.877 111.607 172.515 116.266 170.987C120.924 169.46 129.911 168.74 131.674 168.18C133.437 167.62 134.964 167.378 134.964 167.378" stroke="#031F43" stroke-width="2" stroke-miterlimit="10" stroke-linecap="round" stroke-linejoin="round"/>
<path d="M241.745 150.422C241.745 150.422 249.499 138.473 244.806 128.24C240.112 118.008 225.093 116.18 215.44 117.56" stroke="#031F43" stroke-width="2" stroke-miterlimit="10" stroke-linecap="round" stroke-linejoin="round"/>
<path d="M340.461 4.34677L306.591 3.7688" stroke="#031F43" stroke-width="2" stroke-miterlimit="10" stroke-linecap="round" stroke-linejoin="round"/>
</g>
<defs>
<clipPath id="clip0_3850_3760">
<rect width="430" height="605" fill="white"/>
</clipPath>
</defs>
</svg>
