<svg width="884" height="1128" viewBox="0 0 884 1128" fill="none" xmlns="http://www.w3.org/2000/svg">
<g clip-path="url(#clip0_1057_80552)">
<path d="M545.5 1316C846.771 1316 1091 1071.77 1091 770.5C1091 469.229 846.771 225 545.5 225C244.229 225 0 469.229 0 770.5C0 1071.77 244.229 1316 545.5 1316Z" fill="black"/>
<mask id="mask0_1057_80552" style="mask-type:luminance" maskUnits="userSpaceOnUse" x="223" y="459" width="526" height="248">
<path d="M749 459H223V707H749V459Z" fill="white"/>
</mask>
<g mask="url(#mask0_1057_80552)">
<path d="M252.16 518.4C248 518.4 244.213 517.6 240.8 516C237.44 514.4 234.533 512.24 232.08 509.52C229.68 506.747 227.813 503.653 226.48 500.24C225.147 496.773 224.48 493.227 224.48 489.6C224.48 485.813 225.173 482.213 226.56 478.8C228 475.333 229.947 472.267 232.4 469.6C234.907 466.88 237.84 464.747 241.2 463.2C244.613 461.6 248.347 460.8 252.4 460.8C256.507 460.8 260.24 461.627 263.6 463.28C267.013 464.933 269.92 467.147 272.32 469.92C274.72 472.693 276.587 475.787 277.92 479.2C279.253 482.613 279.92 486.133 279.92 489.76C279.92 493.493 279.227 497.093 277.84 500.56C276.453 503.973 274.507 507.04 272 509.76C269.547 512.427 266.613 514.533 263.2 516.08C259.84 517.627 256.16 518.4 252.16 518.4ZM235.68 489.6C235.68 492.053 236.053 494.427 236.8 496.72C237.547 499.013 238.613 501.067 240 502.88C241.44 504.64 243.173 506.053 245.2 507.12C247.28 508.133 249.627 508.64 252.24 508.64C254.907 508.64 257.28 508.107 259.36 507.04C261.44 505.92 263.173 504.453 264.56 502.64C265.947 500.773 266.987 498.72 267.68 496.48C268.427 494.187 268.8 491.893 268.8 489.6C268.8 487.147 268.4 484.8 267.6 482.56C266.853 480.267 265.76 478.24 264.32 476.48C262.933 474.667 261.2 473.253 259.12 472.24C257.093 471.173 254.8 470.64 252.24 470.64C249.52 470.64 247.12 471.2 245.04 472.32C243.013 473.387 241.307 474.827 239.92 476.64C238.533 478.453 237.467 480.48 236.72 482.72C236.027 484.96 235.68 487.253 235.68 489.6ZM286.949 502.32V476.08H297.669V500C297.669 503.2 298.255 505.627 299.429 507.28C300.602 508.88 302.335 509.68 304.629 509.68C306.015 509.68 307.375 509.413 308.709 508.88C310.095 508.293 311.349 507.44 312.469 506.32C313.642 505.2 314.629 503.787 315.429 502.08V476.08H326.149V506C326.149 507.12 326.335 507.92 326.709 508.4C327.135 508.88 327.802 509.173 328.709 509.28V518C327.642 518.16 326.735 518.267 325.989 518.32C325.295 518.427 324.655 518.48 324.069 518.48C322.149 518.48 320.575 518.053 319.349 517.2C318.175 516.293 317.482 515.067 317.269 513.52L317.029 510.16C315.162 512.987 312.762 515.147 309.829 516.64C306.895 518.08 303.669 518.8 300.149 518.8C295.829 518.8 292.549 517.413 290.309 514.64C288.069 511.813 286.949 507.707 286.949 502.32ZM361.762 485.36C358.509 485.36 355.602 486 353.042 487.28C350.482 488.507 348.642 490.293 347.522 492.64V518H336.802V476.08H346.642V485.04C348.135 482.16 350.029 479.893 352.322 478.24C354.615 476.587 357.042 475.68 359.602 475.52C360.189 475.52 360.642 475.52 360.962 475.52C361.282 475.52 361.549 475.547 361.762 475.6V485.36ZM450.281 518H439.561V494.48C439.561 491.173 438.975 488.747 437.801 487.2C436.681 485.6 435.108 484.8 433.081 484.8C431.001 484.8 429.001 485.627 427.081 487.28C425.215 488.88 423.881 490.987 423.081 493.6V518H412.361V494.48C412.361 491.12 411.775 488.667 410.601 487.12C409.481 485.573 407.908 484.8 405.881 484.8C403.801 484.8 401.801 485.6 399.881 487.2C398.015 488.8 396.681 490.907 395.881 493.52V518H385.161V476.08H394.841V483.84C396.441 481.12 398.575 479.04 401.241 477.6C403.908 476.107 406.975 475.36 410.441 475.36C413.908 475.36 416.601 476.213 418.521 477.92C420.495 479.627 421.748 481.733 422.281 484.24C423.988 481.36 426.148 479.173 428.761 477.68C431.428 476.133 434.415 475.36 437.721 475.36C440.335 475.36 442.441 475.84 444.041 476.8C445.695 477.707 446.975 478.96 447.881 480.56C448.788 482.107 449.401 483.867 449.721 485.84C450.095 487.813 450.281 489.813 450.281 491.84V518ZM459.614 518V476.08H470.334V518H459.614ZM459.614 470.24V459.6H470.334V470.24H459.614ZM495.445 518.8C491.872 518.8 488.458 518.213 485.205 517.04C481.952 515.867 479.152 514.133 476.805 511.84L480.645 504.88C483.152 506.907 485.605 508.4 488.005 509.36C490.458 510.32 492.805 510.8 495.045 510.8C497.125 510.8 498.778 510.427 500.005 509.68C501.285 508.933 501.925 507.813 501.925 506.32C501.925 505.307 501.578 504.533 500.885 504C500.192 503.413 499.178 502.907 497.845 502.48C496.565 502.053 494.992 501.573 493.125 501.04C490.032 500.027 487.445 499.04 485.365 498.08C483.285 497.12 481.712 495.92 480.645 494.48C479.632 492.987 479.125 491.093 479.125 488.8C479.125 486.027 479.818 483.653 481.205 481.68C482.645 479.653 484.618 478.08 487.125 476.96C489.685 475.84 492.672 475.28 496.085 475.28C499.072 475.28 501.898 475.76 504.565 476.72C507.232 477.627 509.658 479.12 511.845 481.2L507.525 488C505.392 486.347 503.365 485.147 501.445 484.4C499.525 483.6 497.578 483.2 495.605 483.2C494.485 483.2 493.418 483.333 492.405 483.6C491.445 483.867 490.645 484.32 490.005 484.96C489.418 485.547 489.125 486.4 489.125 487.52C489.125 488.533 489.392 489.333 489.925 489.92C490.512 490.453 491.365 490.933 492.485 491.36C493.658 491.787 495.072 492.267 496.725 492.8C500.085 493.76 502.912 494.747 505.205 495.76C507.552 496.773 509.312 498.027 510.485 499.52C511.658 500.96 512.245 502.96 512.245 505.52C512.245 509.68 510.725 512.933 507.685 515.28C504.645 517.627 500.565 518.8 495.445 518.8ZM534.976 518.8C531.403 518.8 527.99 518.213 524.736 517.04C521.483 515.867 518.683 514.133 516.336 511.84L520.176 504.88C522.683 506.907 525.136 508.4 527.536 509.36C529.99 510.32 532.336 510.8 534.576 510.8C536.656 510.8 538.31 510.427 539.536 509.68C540.816 508.933 541.456 507.813 541.456 506.32C541.456 505.307 541.11 504.533 540.416 504C539.723 503.413 538.71 502.907 537.376 502.48C536.096 502.053 534.523 501.573 532.656 501.04C529.563 500.027 526.976 499.04 524.896 498.08C522.816 497.12 521.243 495.92 520.176 494.48C519.163 492.987 518.656 491.093 518.656 488.8C518.656 486.027 519.35 483.653 520.736 481.68C522.176 479.653 524.15 478.08 526.656 476.96C529.216 475.84 532.203 475.28 535.616 475.28C538.603 475.28 541.43 475.76 544.096 476.72C546.763 477.627 549.19 479.12 551.376 481.2L547.056 488C544.923 486.347 542.896 485.147 540.976 484.4C539.056 483.6 537.11 483.2 535.136 483.2C534.016 483.2 532.95 483.333 531.936 483.6C530.976 483.867 530.176 484.32 529.536 484.96C528.95 485.547 528.656 486.4 528.656 487.52C528.656 488.533 528.923 489.333 529.456 489.92C530.043 490.453 530.896 490.933 532.016 491.36C533.19 491.787 534.603 492.267 536.256 492.8C539.616 493.76 542.443 494.747 544.736 495.76C547.083 496.773 548.843 498.027 550.016 499.52C551.19 500.96 551.776 502.96 551.776 505.52C551.776 509.68 550.256 512.933 547.216 515.28C544.176 517.627 540.096 518.8 534.976 518.8ZM559.068 518V476.08H569.788V518H559.068ZM559.068 470.24V459.6H569.788V470.24H559.068ZM598.818 518.8C595.405 518.8 592.338 518.24 589.618 517.12C586.898 515.947 584.578 514.347 582.658 512.32C580.791 510.293 579.351 507.973 578.338 505.36C577.325 502.747 576.818 500 576.818 497.12C576.818 494.187 577.325 491.413 578.338 488.8C579.351 486.187 580.791 483.867 582.658 481.84C584.578 479.813 586.898 478.24 589.618 477.12C592.338 475.947 595.405 475.36 598.818 475.36C602.231 475.36 605.271 475.947 607.938 477.12C610.658 478.24 612.978 479.813 614.898 481.84C616.818 483.867 618.258 486.187 619.218 488.8C620.231 491.413 620.738 494.187 620.738 497.12C620.738 500 620.231 502.747 619.218 505.36C618.258 507.973 616.818 510.293 614.898 512.32C613.031 514.347 610.738 515.947 608.018 517.12C605.298 518.24 602.231 518.8 598.818 518.8ZM587.858 497.12C587.858 499.573 588.338 501.76 589.298 503.68C590.258 505.547 591.565 507.013 593.218 508.08C594.871 509.147 596.738 509.68 598.818 509.68C600.845 509.68 602.685 509.147 604.338 508.08C605.991 506.96 607.298 505.467 608.258 503.6C609.271 501.68 609.778 499.493 609.778 497.04C609.778 494.64 609.271 492.48 608.258 490.56C607.298 488.64 605.991 487.147 604.338 486.08C602.685 485.013 600.845 484.48 598.818 484.48C596.738 484.48 594.871 485.04 593.218 486.16C591.565 487.227 590.258 488.72 589.298 490.64C588.338 492.507 587.858 494.667 587.858 497.12ZM666.934 518H656.214V494.48C656.214 491.12 655.627 488.667 654.454 487.12C653.28 485.573 651.654 484.8 649.574 484.8C648.134 484.8 646.667 485.173 645.174 485.92C643.734 486.667 642.427 487.707 641.254 489.04C640.08 490.32 639.227 491.813 638.694 493.52V518H627.974V476.08H637.654V483.84C638.72 482.027 640.08 480.507 641.734 479.28C643.387 478 645.28 477.04 647.414 476.4C649.6 475.707 651.894 475.36 654.294 475.36C656.907 475.36 659.04 475.84 660.694 476.8C662.4 477.707 663.68 478.96 664.534 480.56C665.44 482.107 666.054 483.867 666.374 485.84C666.747 487.813 666.934 489.813 666.934 491.84V518ZM695.474 518V476.08H706.194V518H695.474ZM695.474 470.24V459.6H706.194V470.24H695.474ZM731.304 518.8C727.731 518.8 724.318 518.213 721.064 517.04C717.811 515.867 715.011 514.133 712.664 511.84L716.504 504.88C719.011 506.907 721.464 508.4 723.864 509.36C726.318 510.32 728.664 510.8 730.904 510.8C732.984 510.8 734.638 510.427 735.864 509.68C737.144 508.933 737.784 507.813 737.784 506.32C737.784 505.307 737.438 504.533 736.744 504C736.051 503.413 735.038 502.907 733.704 502.48C732.424 502.053 730.851 501.573 728.984 501.04C725.891 500.027 723.304 499.04 721.224 498.08C719.144 497.12 717.571 495.92 716.504 494.48C715.491 492.987 714.984 491.093 714.984 488.8C714.984 486.027 715.678 483.653 717.064 481.68C718.504 479.653 720.478 478.08 722.984 476.96C725.544 475.84 728.531 475.28 731.944 475.28C734.931 475.28 737.758 475.76 740.424 476.72C743.091 477.627 745.518 479.12 747.704 481.2L743.384 488C741.251 486.347 739.224 485.147 737.304 484.4C735.384 483.6 733.438 483.2 731.464 483.2C730.344 483.2 729.278 483.333 728.264 483.6C727.304 483.867 726.504 484.32 725.864 484.96C725.278 485.547 724.984 486.4 724.984 487.52C724.984 488.533 725.251 489.333 725.784 489.92C726.371 490.453 727.224 490.933 728.344 491.36C729.518 491.787 730.931 492.267 732.584 492.8C735.944 493.76 738.771 494.747 741.064 495.76C743.411 496.773 745.171 498.027 746.344 499.52C747.518 500.96 748.104 502.96 748.104 505.52C748.104 509.68 746.584 512.933 743.544 515.28C740.504 517.627 736.424 518.8 731.304 518.8ZM252 609.84C251.093 610.213 250 610.64 248.72 611.12C247.44 611.6 246.053 611.973 244.56 612.24C243.12 612.56 241.653 612.72 240.16 612.72C238.187 612.72 236.373 612.373 234.72 611.68C233.067 610.987 231.733 609.893 230.72 608.4C229.76 606.853 229.28 604.853 229.28 602.4V578.32H223.76V570.08H229.28V556.48H240V570.08H248.8V578.32H240V598.8C240.053 600.24 240.453 601.28 241.2 601.92C241.947 602.56 242.88 602.88 244 602.88C245.12 602.88 246.213 602.693 247.28 602.32C248.347 601.947 249.2 601.627 249.84 601.36L252 609.84ZM276.474 612.8C273.061 612.8 269.994 612.24 267.274 611.12C264.554 609.947 262.234 608.347 260.314 606.32C258.448 604.293 257.008 601.973 255.994 599.36C254.981 596.747 254.474 594 254.474 591.12C254.474 588.187 254.981 585.413 255.994 582.8C257.008 580.187 258.448 577.867 260.314 575.84C262.234 573.813 264.554 572.24 267.274 571.12C269.994 569.947 273.061 569.36 276.474 569.36C279.888 569.36 282.928 569.947 285.594 571.12C288.314 572.24 290.634 573.813 292.554 575.84C294.474 577.867 295.914 580.187 296.874 582.8C297.888 585.413 298.394 588.187 298.394 591.12C298.394 594 297.888 596.747 296.874 599.36C295.914 601.973 294.474 604.293 292.554 606.32C290.688 608.347 288.394 609.947 285.674 611.12C282.954 612.24 279.888 612.8 276.474 612.8ZM265.514 591.12C265.514 593.573 265.994 595.76 266.954 597.68C267.914 599.547 269.221 601.013 270.874 602.08C272.528 603.147 274.394 603.68 276.474 603.68C278.501 603.68 280.341 603.147 281.994 602.08C283.648 600.96 284.954 599.467 285.914 597.6C286.928 595.68 287.434 593.493 287.434 591.04C287.434 588.64 286.928 586.48 285.914 584.56C284.954 582.64 283.648 581.147 281.994 580.08C280.341 579.013 278.501 578.48 276.474 578.48C274.394 578.48 272.528 579.04 270.874 580.16C269.221 581.227 267.914 582.72 266.954 584.64C265.994 586.507 265.514 588.667 265.514 591.12ZM344.289 612.8C340.929 612.8 337.889 612.24 335.169 611.12C332.449 609.947 330.129 608.373 328.209 606.4C326.289 604.373 324.795 602.08 323.729 599.52C322.715 596.907 322.209 594.16 322.209 591.28C322.209 587.28 323.089 583.627 324.849 580.32C326.662 577.013 329.222 574.373 332.529 572.4C335.889 570.373 339.835 569.36 344.369 569.36C348.955 569.36 352.875 570.373 356.129 572.4C359.382 574.373 361.862 577.013 363.569 580.32C365.329 583.573 366.209 587.093 366.209 590.88C366.209 591.52 366.182 592.187 366.129 592.88C366.075 593.52 366.022 594.053 365.969 594.48H333.569C333.782 596.613 334.395 598.48 335.409 600.08C336.475 601.68 337.809 602.907 339.409 603.76C341.062 604.56 342.822 604.96 344.689 604.96C346.822 604.96 348.822 604.453 350.689 603.44C352.609 602.373 353.915 600.987 354.609 599.28L363.809 601.84C362.795 603.973 361.329 605.867 359.409 607.52C357.542 609.173 355.329 610.48 352.769 611.44C350.209 612.347 347.382 612.8 344.289 612.8ZM333.329 587.68H355.249C355.035 585.547 354.422 583.707 353.409 582.16C352.449 580.56 351.169 579.333 349.569 578.48C347.969 577.573 346.182 577.12 344.209 577.12C342.289 577.12 340.529 577.573 338.929 578.48C337.382 579.333 336.102 580.56 335.089 582.16C334.129 583.707 333.542 585.547 333.329 587.68ZM411.699 612H400.979V588.48C400.979 585.12 400.393 582.667 399.219 581.12C398.046 579.573 396.419 578.8 394.339 578.8C392.899 578.8 391.433 579.173 389.939 579.92C388.499 580.667 387.193 581.707 386.019 583.04C384.846 584.32 383.993 585.813 383.459 587.52V612H372.739V570.08H382.419V577.84C383.486 576.027 384.846 574.507 386.499 573.28C388.153 572 390.046 571.04 392.179 570.4C394.366 569.707 396.659 569.36 399.059 569.36C401.673 569.36 403.806 569.84 405.459 570.8C407.166 571.707 408.446 572.96 409.299 574.56C410.206 576.107 410.819 577.867 411.139 579.84C411.513 581.813 411.699 583.813 411.699 585.84V612ZM445.906 609.84C445 610.213 443.906 610.64 442.626 611.12C441.346 611.6 439.96 611.973 438.466 612.24C437.026 612.56 435.56 612.72 434.066 612.72C432.093 612.72 430.28 612.373 428.626 611.68C426.973 610.987 425.64 609.893 424.626 608.4C423.666 606.853 423.186 604.853 423.186 602.4V578.32H417.666V570.08H423.186V556.48H433.906V570.08H442.706V578.32H433.906V598.8C433.96 600.24 434.36 601.28 435.106 601.92C435.853 602.56 436.786 602.88 437.906 602.88C439.026 602.88 440.12 602.693 441.186 602.32C442.253 601.947 443.106 601.627 443.746 601.36L445.906 609.84ZM470.461 612.8C467.101 612.8 464.061 612.24 461.341 611.12C458.621 609.947 456.301 608.373 454.381 606.4C452.461 604.373 450.967 602.08 449.901 599.52C448.887 596.907 448.381 594.16 448.381 591.28C448.381 587.28 449.261 583.627 451.021 580.32C452.834 577.013 455.394 574.373 458.701 572.4C462.061 570.373 466.007 569.36 470.541 569.36C475.127 569.36 479.047 570.373 482.301 572.4C485.554 574.373 488.034 577.013 489.741 580.32C491.501 583.573 492.381 587.093 492.381 590.88C492.381 591.52 492.354 592.187 492.301 592.88C492.247 593.52 492.194 594.053 492.141 594.48H459.741C459.954 596.613 460.567 598.48 461.581 600.08C462.647 601.68 463.981 602.907 465.581 603.76C467.234 604.56 468.994 604.96 470.861 604.96C472.994 604.96 474.994 604.453 476.861 603.44C478.781 602.373 480.087 600.987 480.781 599.28L489.981 601.84C488.967 603.973 487.501 605.867 485.581 607.52C483.714 609.173 481.501 610.48 478.941 611.44C476.381 612.347 473.554 612.8 470.461 612.8ZM459.501 587.68H481.421C481.207 585.547 480.594 583.707 479.581 582.16C478.621 580.56 477.341 579.333 475.741 578.48C474.141 577.573 472.354 577.12 470.381 577.12C468.461 577.12 466.701 577.573 465.101 578.48C463.554 579.333 462.274 580.56 461.261 582.16C460.301 583.707 459.714 585.547 459.501 587.68ZM523.871 579.36C520.618 579.36 517.711 580 515.151 581.28C512.591 582.507 510.751 584.293 509.631 586.64V612H498.911V570.08H508.751V579.04C510.245 576.16 512.138 573.893 514.431 572.24C516.725 570.587 519.151 569.68 521.711 569.52C522.298 569.52 522.751 569.52 523.071 569.52C523.391 569.52 523.658 569.547 523.871 569.6V579.36ZM554.969 609.84C554.062 610.213 552.969 610.64 551.689 611.12C550.409 611.6 549.022 611.973 547.529 612.24C546.089 612.56 544.622 612.72 543.129 612.72C541.155 612.72 539.342 612.373 537.689 611.68C536.035 610.987 534.702 609.893 533.689 608.4C532.729 606.853 532.249 604.853 532.249 602.4V578.32H526.729V570.08H532.249V556.48H542.969V570.08H551.769V578.32H542.969V598.8C543.022 600.24 543.422 601.28 544.169 601.92C544.915 602.56 545.849 602.88 546.969 602.88C548.089 602.88 549.182 602.693 550.249 602.32C551.315 601.947 552.169 601.627 552.809 601.36L554.969 609.84ZM557.672 599.6C557.672 596.88 558.419 594.507 559.912 592.48C561.459 590.4 563.592 588.8 566.312 587.68C569.032 586.56 572.152 586 575.672 586C577.432 586 579.219 586.133 581.032 586.4C582.845 586.667 584.419 587.093 585.752 587.68V585.44C585.752 582.773 584.952 580.72 583.352 579.28C581.805 577.84 579.485 577.12 576.392 577.12C574.099 577.12 571.912 577.52 569.832 578.32C567.752 579.12 565.565 580.293 563.272 581.84L559.832 574.8C562.605 572.987 565.432 571.627 568.312 570.72C571.245 569.813 574.312 569.36 577.512 569.36C583.485 569.36 588.125 570.853 591.432 573.84C594.792 576.827 596.472 581.093 596.472 586.64V600C596.472 601.12 596.659 601.92 597.032 602.4C597.459 602.88 598.125 603.173 599.032 603.28V612C598.072 612.16 597.192 612.293 596.392 612.4C595.645 612.507 595.005 612.56 594.472 612.56C592.339 612.56 590.712 612.08 589.592 611.12C588.525 610.16 587.859 608.987 587.592 607.6L587.352 605.44C585.539 607.787 583.272 609.6 580.552 610.88C577.832 612.16 575.059 612.8 572.232 612.8C569.459 612.8 566.952 612.24 564.712 611.12C562.525 609.947 560.792 608.373 559.512 606.4C558.285 604.373 557.672 602.107 557.672 599.6ZM583.752 601.76C584.339 601.12 584.819 600.48 585.192 599.84C585.565 599.2 585.752 598.613 585.752 598.08V593.84C584.472 593.307 583.085 592.907 581.592 592.64C580.099 592.32 578.685 592.16 577.352 592.16C574.579 592.16 572.285 592.773 570.472 594C568.712 595.173 567.832 596.747 567.832 598.72C567.832 599.787 568.125 600.8 568.712 601.76C569.299 602.72 570.152 603.493 571.272 604.08C572.392 604.667 573.725 604.96 575.272 604.96C576.872 604.96 578.445 604.667 579.992 604.08C581.539 603.44 582.792 602.667 583.752 601.76ZM606.489 612V570.08H617.209V612H606.489ZM606.489 564.24V553.6H617.209V564.24H606.489ZM665.84 612H655.12V588.48C655.12 585.12 654.533 582.667 653.36 581.12C652.187 579.573 650.56 578.8 648.48 578.8C647.04 578.8 645.573 579.173 644.08 579.92C642.64 580.667 641.333 581.707 640.16 583.04C638.987 584.32 638.133 585.813 637.6 587.52V612H626.88V570.08H636.56V577.84C637.627 576.027 638.987 574.507 640.64 573.28C642.293 572 644.187 571.04 646.32 570.4C648.507 569.707 650.8 569.36 653.2 569.36C655.813 569.36 657.947 569.84 659.6 570.8C661.307 571.707 662.587 572.96 663.44 574.56C664.347 576.107 664.96 577.867 665.28 579.84C665.653 581.813 665.84 583.813 665.84 585.84V612ZM264.88 706L238.16 677.68C235.92 675.28 234.107 673.227 232.72 671.52C231.387 669.76 230.427 668.16 229.84 666.72C229.253 665.28 228.96 663.733 228.96 662.08C228.96 659.36 229.627 656.987 230.96 654.96C232.347 652.88 234.213 651.28 236.56 650.16C238.96 649.04 241.627 648.48 244.56 648.48C247.227 648.48 249.68 648.96 251.92 649.92C254.213 650.827 256.08 652.213 257.52 654.08C258.96 655.947 259.68 658.267 259.68 661.04C259.68 663.547 259.04 665.813 257.76 667.84C256.533 669.867 254.88 671.733 252.8 673.44C250.72 675.147 248.373 676.8 245.76 678.4C243.84 679.627 242.08 680.827 240.48 682C238.933 683.173 237.707 684.427 236.8 685.76C235.947 687.04 235.52 688.453 235.52 690C235.52 691.493 235.947 692.88 236.8 694.16C237.653 695.44 238.827 696.48 240.32 697.28C241.867 698.027 243.573 698.4 245.44 698.4C247.733 698.4 249.947 697.84 252.08 696.72C254.267 695.6 256.213 694.027 257.92 692C259.627 689.92 260.96 687.44 261.92 684.56C262.933 681.68 263.44 678.453 263.44 674.88H272.16C272.16 679.947 271.387 684.453 269.84 688.4C268.293 692.293 266.213 695.627 263.6 698.4C260.987 701.12 258.027 703.2 254.72 704.64C251.413 706.08 247.973 706.8 244.4 706.8C240.507 706.8 237.12 706.027 234.24 704.48C231.36 702.88 229.12 700.8 227.52 698.24C225.973 695.68 225.2 692.907 225.2 689.92C225.2 686.933 225.893 684.32 227.28 682.08C228.667 679.84 230.427 677.867 232.56 676.16C234.693 674.4 236.827 672.853 238.96 671.52C241.307 670.027 243.28 668.773 244.88 667.76C246.48 666.693 247.707 665.653 248.56 664.64C249.413 663.573 249.84 662.427 249.84 661.2C249.84 659.76 249.333 658.613 248.32 657.76C247.36 656.853 246.107 656.4 244.56 656.4C243.387 656.4 242.347 656.64 241.44 657.12C240.587 657.6 239.92 658.24 239.44 659.04C238.96 659.84 238.72 660.747 238.72 661.76C238.72 662.507 238.933 663.253 239.36 664C239.84 664.747 240.64 665.733 241.76 666.96C242.933 668.133 244.533 669.813 246.56 672L278.96 706H264.88ZM322.492 706.8C319.132 706.8 316.092 706.24 313.372 705.12C310.652 703.947 308.332 702.373 306.412 700.4C304.492 698.373 302.999 696.08 301.932 693.52C300.919 690.907 300.412 688.16 300.412 685.28C300.412 681.28 301.292 677.627 303.052 674.32C304.865 671.013 307.425 668.373 310.732 666.4C314.092 664.373 318.039 663.36 322.572 663.36C327.159 663.36 331.079 664.373 334.332 666.4C337.585 668.373 340.065 671.013 341.772 674.32C343.532 677.573 344.412 681.093 344.412 684.88C344.412 685.52 344.385 686.187 344.332 686.88C344.279 687.52 344.225 688.053 344.172 688.48H311.772C311.985 690.613 312.599 692.48 313.612 694.08C314.679 695.68 316.012 696.907 317.612 697.76C319.265 698.56 321.025 698.96 322.892 698.96C325.025 698.96 327.025 698.453 328.892 697.44C330.812 696.373 332.119 694.987 332.812 693.28L342.012 695.84C340.999 697.973 339.532 699.867 337.612 701.52C335.745 703.173 333.532 704.48 330.972 705.44C328.412 706.347 325.585 706.8 322.492 706.8ZM311.532 681.68H333.452C333.239 679.547 332.625 677.707 331.612 676.16C330.652 674.56 329.372 673.333 327.772 672.48C326.172 671.573 324.385 671.12 322.412 671.12C320.492 671.12 318.732 671.573 317.132 672.48C315.585 673.333 314.305 674.56 313.292 676.16C312.332 677.707 311.745 679.547 311.532 681.68ZM348.383 685.04C348.383 680.987 349.183 677.333 350.783 674.08C352.383 670.773 354.596 668.16 357.423 666.24C360.249 664.32 363.476 663.36 367.103 663.36C370.196 663.36 372.969 664.133 375.423 665.68C377.929 667.173 379.876 669.093 381.263 671.44V647.6H391.983V694C391.983 695.12 392.169 695.92 392.543 696.4C392.916 696.88 393.556 697.173 394.463 697.28V706C392.596 706.373 391.076 706.56 389.903 706.56C387.983 706.56 386.383 706.08 385.103 705.12C383.876 704.16 383.183 702.907 383.023 701.36L382.863 698.72C381.316 701.333 379.209 703.333 376.543 704.72C373.929 706.107 371.183 706.8 368.303 706.8C365.423 706.8 362.756 706.24 360.303 705.12C357.903 704 355.796 702.453 353.983 700.48C352.223 698.507 350.836 696.213 349.823 693.6C348.863 690.933 348.383 688.08 348.383 685.04ZM381.263 690.64V680.64C380.729 679.093 379.876 677.707 378.703 676.48C377.529 675.253 376.223 674.293 374.783 673.6C373.343 672.853 371.903 672.48 370.463 672.48C368.809 672.48 367.316 672.827 365.983 673.52C364.649 674.213 363.476 675.147 362.463 676.32C361.503 677.493 360.756 678.853 360.223 680.4C359.743 681.947 359.503 683.573 359.503 685.28C359.503 686.987 359.769 688.613 360.303 690.16C360.889 691.653 361.716 692.96 362.783 694.08C363.849 695.2 365.076 696.08 366.463 696.72C367.903 697.36 369.449 697.68 371.103 697.68C372.116 697.68 373.129 697.52 374.143 697.2C375.209 696.827 376.196 696.347 377.103 695.76C378.063 695.12 378.889 694.373 379.583 693.52C380.329 692.613 380.889 691.653 381.263 690.64ZM402.105 690.32V664.08H412.825V688C412.825 691.2 413.412 693.627 414.585 695.28C415.758 696.88 417.492 697.68 419.785 697.68C421.172 697.68 422.532 697.413 423.865 696.88C425.252 696.293 426.505 695.44 427.625 694.32C428.798 693.2 429.785 691.787 430.585 690.08V664.08H441.305V694C441.305 695.12 441.492 695.92 441.865 696.4C442.292 696.88 442.958 697.173 443.865 697.28V706C442.798 706.16 441.892 706.267 441.145 706.32C440.452 706.427 439.812 706.48 439.225 706.48C437.305 706.48 435.732 706.053 434.505 705.2C433.332 704.293 432.638 703.067 432.425 701.52L432.185 698.16C430.318 700.987 427.918 703.147 424.985 704.64C422.052 706.08 418.825 706.8 415.305 706.8C410.985 706.8 407.705 705.413 405.465 702.64C403.225 699.813 402.105 695.707 402.105 690.32ZM471.478 706.8C468.065 706.8 464.998 706.24 462.278 705.12C459.558 703.947 457.238 702.347 455.318 700.32C453.398 698.24 451.905 695.893 450.838 693.28C449.825 690.667 449.318 687.92 449.318 685.04C449.318 681.093 450.198 677.493 451.958 674.24C453.771 670.933 456.331 668.293 459.638 666.32C462.945 664.347 466.865 663.36 471.398 663.36C475.931 663.36 479.825 664.347 483.078 666.32C486.331 668.293 488.758 670.88 490.358 674.08L479.878 677.28C478.971 675.733 477.771 674.56 476.278 673.76C474.785 672.907 473.131 672.48 471.318 672.48C469.291 672.48 467.425 673.013 465.718 674.08C464.065 675.093 462.758 676.56 461.798 678.48C460.838 680.347 460.358 682.533 460.358 685.04C460.358 687.493 460.838 689.68 461.798 691.6C462.811 693.467 464.145 694.96 465.798 696.08C467.451 697.147 469.291 697.68 471.318 697.68C472.598 697.68 473.798 697.467 474.918 697.04C476.091 696.613 477.131 696.027 478.038 695.28C478.945 694.533 479.611 693.68 480.038 692.72L490.518 695.92C489.558 698 488.145 699.867 486.278 701.52C484.465 703.173 482.305 704.48 479.798 705.44C477.345 706.347 474.571 706.8 471.478 706.8ZM494.234 693.6C494.234 690.88 494.981 688.507 496.474 686.48C498.021 684.4 500.154 682.8 502.874 681.68C505.594 680.56 508.714 680 512.234 680C513.994 680 515.781 680.133 517.594 680.4C519.408 680.667 520.981 681.093 522.314 681.68V679.44C522.314 676.773 521.514 674.72 519.914 673.28C518.368 671.84 516.048 671.12 512.954 671.12C510.661 671.12 508.474 671.52 506.394 672.32C504.314 673.12 502.128 674.293 499.834 675.84L496.394 668.8C499.168 666.987 501.994 665.627 504.874 664.72C507.808 663.813 510.874 663.36 514.074 663.36C520.048 663.36 524.688 664.853 527.994 667.84C531.354 670.827 533.034 675.093 533.034 680.64V694C533.034 695.12 533.221 695.92 533.594 696.4C534.021 696.88 534.688 697.173 535.594 697.28V706C534.634 706.16 533.754 706.293 532.954 706.4C532.208 706.507 531.568 706.56 531.034 706.56C528.901 706.56 527.274 706.08 526.154 705.12C525.088 704.16 524.421 702.987 524.154 701.6L523.914 699.44C522.101 701.787 519.834 703.6 517.114 704.88C514.394 706.16 511.621 706.8 508.794 706.8C506.021 706.8 503.514 706.24 501.274 705.12C499.088 703.947 497.354 702.373 496.074 700.4C494.848 698.373 494.234 696.107 494.234 693.6ZM520.314 695.76C520.901 695.12 521.381 694.48 521.754 693.84C522.128 693.2 522.314 692.613 522.314 692.08V687.84C521.034 687.307 519.648 686.907 518.154 686.64C516.661 686.32 515.248 686.16 513.914 686.16C511.141 686.16 508.848 686.773 507.034 688C505.274 689.173 504.394 690.747 504.394 692.72C504.394 693.787 504.688 694.8 505.274 695.76C505.861 696.72 506.714 697.493 507.834 698.08C508.954 698.667 510.288 698.96 511.834 698.96C513.434 698.96 515.008 698.667 516.554 698.08C518.101 697.44 519.354 696.667 520.314 695.76ZM567.781 703.84C566.875 704.213 565.781 704.64 564.501 705.12C563.221 705.6 561.835 705.973 560.341 706.24C558.901 706.56 557.435 706.72 555.941 706.72C553.968 706.72 552.155 706.373 550.501 705.68C548.848 704.987 547.515 703.893 546.501 702.4C545.541 700.853 545.061 698.853 545.061 696.4V672.32H539.541V664.08H545.061V650.48H555.781V664.08H564.581V672.32H555.781V692.8C555.835 694.24 556.235 695.28 556.981 695.92C557.728 696.56 558.661 696.88 559.781 696.88C560.901 696.88 561.995 696.693 563.061 696.32C564.128 695.947 564.981 695.627 565.621 695.36L567.781 703.84ZM592.336 706.8C588.976 706.8 585.936 706.24 583.216 705.12C580.496 703.947 578.176 702.373 576.256 700.4C574.336 698.373 572.842 696.08 571.776 693.52C570.762 690.907 570.256 688.16 570.256 685.28C570.256 681.28 571.136 677.627 572.896 674.32C574.709 671.013 577.269 668.373 580.576 666.4C583.936 664.373 587.882 663.36 592.416 663.36C597.002 663.36 600.922 664.373 604.176 666.4C607.429 668.373 609.909 671.013 611.616 674.32C613.376 677.573 614.256 681.093 614.256 684.88C614.256 685.52 614.229 686.187 614.176 686.88C614.122 687.52 614.069 688.053 614.016 688.48H581.616C581.829 690.613 582.442 692.48 583.456 694.08C584.522 695.68 585.856 696.907 587.456 697.76C589.109 698.56 590.869 698.96 592.736 698.96C594.869 698.96 596.869 698.453 598.736 697.44C600.656 696.373 601.962 694.987 602.656 693.28L611.856 695.84C610.842 697.973 609.376 699.867 607.456 701.52C605.589 703.173 603.376 704.48 600.816 705.44C598.256 706.347 595.429 706.8 592.336 706.8ZM581.376 681.68H603.296C603.082 679.547 602.469 677.707 601.456 676.16C600.496 674.56 599.216 673.333 597.616 672.48C596.016 671.573 594.229 671.12 592.256 671.12C590.336 671.12 588.576 671.573 586.976 672.48C585.429 673.333 584.149 674.56 583.136 676.16C582.176 677.707 581.589 679.547 581.376 681.68ZM620.546 706V694.48H629.346V706H620.546Z" fill="#EAFAFE"/>
</g>
<path d="M327.458 203.646C327.354 203.991 328.366 210.612 325.941 214.141C323.516 217.67 320.562 217.337 320.562 217.337L327.079 222.154C327.079 222.154 329.906 242.65 323.102 247.042C320.815 248.525 318.079 249.134 315.183 249.191C313.758 249.214 316.907 254.399 314.436 256.434C310.988 259.273 303.931 265.343 294.276 251.56C289.932 245.363 287.805 245.375 290.15 241.248C291.196 239.409 305.184 235.098 305.184 235.098C305.184 235.098 299.701 237.42 295.747 237.144C291.805 236.857 287.012 230.821 283.553 225.235C280.105 219.648 273.347 195.242 273.347 195.242C273.347 195.242 286.265 192.093 293.23 191.322C300.207 190.552 308.988 195.622 314.367 194.196C319.757 192.759 327.458 203.646 327.458 203.646Z" fill="white"/>
<path d="M253.015 311.188C252.75 311.188 244.532 308.13 240.682 308.394C236.832 308.659 232.982 308.486 232.982 308.486C232.982 308.486 223.971 301.405 219.258 297.117C214.535 292.829 180.87 256.1 176.848 254.169C172.825 252.249 159.274 242.708 159.274 242.708C159.274 242.708 162.423 247.87 162.251 247.605C162.079 247.341 154.033 246.731 149.654 249.617C145.287 252.502 141.172 258.446 141.172 258.446L151.229 263.515C151.229 263.515 145.103 270.424 142.919 275.586C140.735 280.747 136.356 300.163 136.356 300.163C136.356 300.163 166.963 293.599 180.077 296.14C193.191 298.68 209.374 305.233 211.121 306.727C212.868 308.21 212.431 308.739 212.351 309.877C212.259 311.015 214.017 316.786 215.845 319.591C217.684 322.384 218.465 324.224 221.086 325.281C223.706 326.327 226.856 327.557 226.856 327.557C226.856 327.557 229.913 331.052 233.671 332.018C237.43 332.983 237.958 333.248 240.671 333.064C243.383 332.88 250.727 331.834 250.727 331.834C250.727 331.834 257.026 339.444 259.991 338.835C262.956 338.225 265.324 333.328 263.485 327.638C261.646 321.948 253.015 311.188 253.015 311.188Z" fill="white"/>
<path d="M568.728 93.5172C568.728 93.5172 549.729 90.3214 540.523 93.8965C531.306 97.4717 527.168 102.173 519.456 132.648C511.744 163.123 562.338 123.245 563.464 118.923C564.591 114.589 568.728 93.5172 568.728 93.5172Z" fill="#4B69FD"/>
<path d="M745.67 127.728C745.911 127.073 760.876 76.8255 760.876 76.8255C760.876 76.8255 736.257 59.1912 723.947 59.1912C711.638 59.1912 701.328 77.1589 695.007 90.8042C688.685 104.45 689.019 116.761 689.019 116.761L745.67 127.728Z" fill="#A7CCE9"/>
<path d="M760.875 76.8369L790.919 98.3798L787.379 111.312L751.784 109.542L760.875 76.8369Z" fill="#4B69FD"/>
<path d="M698.673 110.439C698.673 110.439 717.637 64.8585 714.971 62.5249C712.304 60.1913 688.685 48.2128 683.364 48.8796C678.042 49.5463 581.566 50.8798 576.912 54.8688C572.257 58.8578 562.602 108.772 558.947 119.75C555.292 130.729 535.328 205.255 536.995 210.578C538.661 215.9 613.507 227.545 623.15 218.567C632.804 209.589 698.673 110.439 698.673 110.439Z" fill="#4B69FD"/>
<path d="M745.67 127.728C745.67 127.728 664.342 90.5744 651.297 87.5625C638.252 84.5506 619.667 92.0803 611.633 112.163C603.599 132.246 523.398 301.025 523.398 301.025L694.88 322.568L745.67 127.728Z" fill="#A7CCE9"/>
<path d="M585.106 308.015C585.106 308.015 592.014 287.851 601.473 260.124C610.932 232.396 638.666 129.924 643.884 124.061C649.102 118.198 666.4 128.303 677.157 132.223C687.915 136.143 737.51 157.996 737.51 157.996" stroke="#031F43" stroke-width="2" stroke-miterlimit="10" stroke-linecap="round" stroke-linejoin="round"/>
<path d="M704.052 289.357L734.096 310.9L730.556 323.833L694.961 322.062L704.052 289.357Z" fill="#4B69FD"/>
<path d="M694.535 28.3022C694.535 28.3022 676.456 42.5569 665.089 52.4891C653.722 62.4214 641.332 74.7447 638.367 75.0091C634.103 75.3885 628.689 68.0657 625.908 60.4441C623.115 52.8225 627.529 52.2017 627.529 52.2017C627.529 52.2017 655.044 32.7511 662.974 26.3595C670.905 19.9679 673.962 14.3465 673.962 14.3465C673.962 14.3465 680.214 12.1623 681.996 15.2776C683.789 18.393 694.535 28.3022 694.535 28.3022Z" fill="#F3B63F"/>
<path d="M736.211 7.28818C736.211 7.28818 734.9 14.9788 733.809 17.8987C732.717 20.8186 725.395 21.6463 714.592 23.7729C703.788 25.8996 701.765 29.8312 701.765 29.8312C701.765 29.8312 698.202 36.3377 692.007 33.7512C685.536 31.0497 689.363 23.9799 686.122 23.8074C683.008 23.6465 676.192 23.6925 671.204 23.7615C668.089 23.7959 665.664 21.083 666.066 17.9906L667.767 4.75913C667.767 4.75913 680.318 2.98881 701.064 4.20735C725.533 5.63281 736.211 7.28818 736.211 7.28818Z" fill="#FF5613"/>
<path d="M738.256 6.95488C738.049 7.82855 737.13 8.29987 736.107 8.04696C731.291 6.85141 667.606 6.06971 667.606 6.06971L668.227 0L739.682 0.931146L738.256 6.95488Z" fill="#FF5613"/>
<path d="M705.224 25.8423C705.224 25.8423 701.11 23.9455 697.052 18.1057" stroke="#031F43" stroke-width="2" stroke-miterlimit="10" stroke-linecap="round" stroke-linejoin="round"/>
<path d="M711.04 24.095C711.04 24.095 706.925 22.1982 702.868 16.3584" stroke="#031F43" stroke-width="2" stroke-miterlimit="10" stroke-linecap="round" stroke-linejoin="round"/>
<path d="M717.649 22.5889C717.649 22.5889 713.534 20.6921 709.477 14.8523" stroke="#031F43" stroke-width="2" stroke-miterlimit="10" stroke-linecap="round" stroke-linejoin="round"/>
<path d="M729.475 242.225C729.475 242.225 714.258 245.8 699.673 249.663C685.088 253.537 668.526 259.101 665.744 258.032C661.756 256.48 660.135 247.525 661.02 239.455C661.894 231.385 666.123 232.776 666.123 232.776C666.123 232.776 699.409 227.511 709.339 225.292C719.281 223.073 724.51 219.383 724.51 219.383C724.51 219.383 731.073 220.188 731.303 223.775C731.533 227.373 729.475 242.225 729.475 242.225Z" fill="#F3B63F"/>
<path d="M726.004 225.51C726.027 226.545 720.154 230.017 721.487 235.259C722.832 240.501 729.705 246.203 729.705 246.203C729.705 246.203 740.785 242.271 745.371 241.512C749.957 240.754 766.404 240.719 769.656 240.604C772.909 240.489 781.69 239.604 785.012 236.075C787.31 233.626 795.183 223.729 782.414 217.05C769.852 210.474 763.37 211.198 755.703 209.589C748.026 207.98 741.176 203.312 738.912 203.761C736.647 204.22 722.43 216.889 721.706 219.751C720.982 222.614 726.004 225.51 726.004 225.51Z" fill="#FF5613"/>
<path d="M735.475 207.543C735.475 207.543 745.784 212.854 753.991 214.337C762.197 215.82 786.046 218.533 787.678 231.316" stroke="#031F43" stroke-width="2" stroke-miterlimit="10" stroke-linecap="round" stroke-linejoin="round"/>
<path d="M734.038 229.132C734.038 229.132 730.981 234.489 736.969 240.501" stroke="#031F43" stroke-width="2" stroke-miterlimit="10" stroke-linecap="round" stroke-linejoin="round"/>
<path d="M740.624 227.902C740.624 227.902 737.567 233.259 743.555 239.271" stroke="#031F43" stroke-width="2" stroke-miterlimit="10" stroke-linecap="round" stroke-linejoin="round"/>
<path d="M747.52 227.522C747.52 227.522 744.463 232.879 750.451 238.891" stroke="#031F43" stroke-width="2" stroke-miterlimit="10" stroke-linecap="round" stroke-linejoin="round"/>
<path d="M547.753 185.069C547.753 185.069 584.302 204.059 596.209 211.52C608.128 218.981 621 228.775 621 228.775C621 228.775 668.434 226.568 680.985 222.878C693.535 219.188 701.075 219.13 701.075 219.13C701.075 219.13 706.534 228.074 710.913 237.029C715.292 245.984 716.442 254.594 716.442 254.594C716.442 254.594 673.043 264.63 650.423 266.239C627.804 267.849 618.816 267.918 608.38 265.837C597.944 263.756 567.349 256.445 552.925 250.088C538.5 243.731 510.652 227.499 510.652 227.499C510.652 227.499 509.824 205.496 516.95 197.898C524.076 190.276 547.753 185.069 547.753 185.069Z" fill="#031F43"/>
<path d="M470.034 159.054C470.034 159.054 492.952 141.477 513.606 130.775C528.915 122.831 565.2 105.783 571.992 100.357C578.785 94.9196 589.37 90.0339 590.727 88.1371C592.083 86.2403 627.115 46.8562 638.516 37.3493C649.918 27.8424 655.354 25.1294 655.354 25.1294C655.354 25.1294 665.354 27.7964 671.79 33.0959C678.226 38.4069 678.801 46.5458 678.801 46.5458C678.801 46.5458 662.227 60.7889 655.078 68.8244C650.067 74.4688 641.482 87.6543 641.482 87.6543C641.482 87.6543 625.908 109.508 614.886 123.107C603.864 136.706 566.211 173.596 542.822 191.242C530.248 200.726 506.893 214.635 505.48 214.635C504.066 214.635 470.034 159.054 470.034 159.054Z" fill="#031F43"/>
<path d="M401.556 273.482C401.556 273.482 439.025 298.784 449.093 303.233C459.161 307.681 469.23 311.429 482.585 304.876C495.929 298.312 515.077 299.634 525.915 301.6C535.535 303.348 540.627 299.68 547.385 285.391C552.235 275.149 551.58 256.054 549.006 249.26C546.431 242.467 511.433 220.211 487.067 224.89C462.724 229.568 401.556 273.482 401.556 273.482Z" fill="#4B69FD"/>
<path d="M520.617 230.396C520.617 230.396 504.422 224.028 490.849 228.591C477.275 233.167 462.184 240.225 458.311 242.581C454.437 244.938 451.667 250.203 448.484 253.801C445.3 257.399 441.84 262.389 436.301 265.159C430.761 267.929 404.314 277.068 397.12 277.482C389.925 277.896 382.167 277.758 382.167 277.758C382.167 277.758 376.903 302.957 376.075 309.325C375.247 315.694 373.443 328.155 367.351 334.248C361.26 340.341 356.835 340.065 351.571 338.398C346.307 336.731 346.307 337.432 343.951 335.076C341.595 332.719 336.331 326.488 336.331 326.488C336.331 326.488 307.815 330.362 301.023 332.443C294.242 334.524 272.082 337.018 268.347 337.984C264.612 338.95 260.451 338.95 260.451 338.95C260.451 338.95 263.083 336.731 261.416 331.615C259.75 326.5 251.038 309.877 251.038 309.877L291.46 307.934L317.631 296.715C317.631 296.715 311.815 283.839 310.011 280.793C308.206 277.747 307.379 276.505 305.436 274.424C303.494 272.344 301.563 268.47 301.425 266.527C301.287 264.584 301.011 262.101 301.011 262.101L315.826 255.1L314.815 245.743C314.815 245.743 322.297 247.617 324.32 244.018C326.331 240.42 326.906 226.453 327.78 222.418C328.642 218.383 349.088 201.829 361.042 199.093C372.995 196.357 379.902 198.944 398.763 192.759C417.624 186.563 416.474 185.85 424.681 180.666C432.887 175.481 470.459 149.133 470.459 149.133C470.459 149.133 504.583 188.161 507.457 191.61C510.341 195.07 515.663 200.68 517.249 205.29C518.847 209.888 520.617 230.396 520.617 230.396Z" fill="#F3B63F"/>
<path d="M364.444 190.472C364.765 190.587 369.593 192.196 374.018 188.828C382.833 182.091 380.925 166.423 380.925 166.423C380.925 166.423 371.616 175.792 363.409 172.113C355.203 168.434 343.296 160.364 325.113 168.216C315.654 172.297 313.712 171.251 302.965 170.285C292.23 169.32 286.173 176.792 286.173 176.792C286.173 176.792 279.645 173.998 272.749 181.85C267.784 187.506 267.175 194.185 267.381 197.587C267.68 202.806 270.841 207.864 290.288 198.702C296.012 196.001 305.206 200.783 312.034 205.129C316.918 208.232 317.964 202.726 321.297 203.841C323.826 204.692 326.147 208.382 324.653 211.244C322.906 214.578 319.205 216.751 319.205 216.751C319.205 216.751 321.286 223.763 322.722 224.269C327.423 225.959 334.722 220.038 341.802 211.336C344.801 207.658 348.548 208.152 352.651 209.026C357.789 210.106 361.248 206.818 362.191 206.255C362.34 206.175 360.593 206.359 359.203 206.083C358.088 205.864 357.249 205.174 357.375 205.152C360.708 204.772 362.513 204.669 366.57 203.565C375.224 201.231 373.627 191.15 373.627 191.15C373.627 191.15 370.926 193.035 368.397 192.587C365.788 192.115 364.559 190.632 364.444 190.472Z" fill="#031F43"/>
<path d="M273.22 198.921C273.22 198.921 284.714 234.213 294.391 236.017C304.839 237.96 313.643 226.729 313.643 226.729" stroke="#031F43" stroke-width="2" stroke-miterlimit="10" stroke-linecap="round" stroke-linejoin="round"/>
<path d="M290.294 227.477C291.515 227.132 292.15 225.589 291.71 224.031C291.271 222.473 289.924 221.49 288.702 221.834C287.48 222.179 286.846 223.722 287.286 225.28C287.725 226.838 289.072 227.821 290.294 227.477Z" stroke="#031F43" stroke-width="2" stroke-miterlimit="10" stroke-linecap="round" stroke-linejoin="round"/>
<path d="M285.852 217.705C284.277 217.843 283.403 217.544 283.587 216.728C283.863 215.486 284.024 210.842 284.024 210.842C284.024 210.842 283.553 207.784 280.898 207.244C277.599 206.577 276.91 207.795 276.91 207.795" stroke="#031F43" stroke-width="2" stroke-miterlimit="10" stroke-linecap="round" stroke-linejoin="round"/>
<path d="M290.828 208.37C290.828 208.37 292.897 205.209 298.276 207.393" stroke="#031F43" stroke-width="2" stroke-miterlimit="10" stroke-linecap="round" stroke-linejoin="round"/>
<path d="M303.229 243.041C303.229 243.041 312.447 242.892 309.172 238.73C305.896 234.569 293.081 236.121 290.403 240.731C287.725 245.34 290.104 247.95 292.931 250.031C295.759 252.111 302.632 259.101 302.632 259.101" stroke="#031F43" stroke-width="2" stroke-miterlimit="10" stroke-linecap="round" stroke-linejoin="round"/>
<path d="M310.516 240.811C310.516 240.811 312.895 239.627 313.792 242.593C314.688 245.559 315.723 254.939 315.723 254.939" stroke="#031F43" stroke-width="2" stroke-miterlimit="10" stroke-linecap="round" stroke-linejoin="round"/>
<path d="M233.005 308.601C233.005 308.601 244.602 306.992 249.957 309.877" stroke="#031F43" stroke-width="2" stroke-miterlimit="10" stroke-linecap="round" stroke-linejoin="round"/>
<path d="M258.796 329.224C258.796 329.224 244.142 332.661 239.809 332.868C235.476 333.075 233.844 326.959 231.568 323.246C229.304 319.533 229.511 316.027 231.361 315.406C233.223 314.785 238.993 322.005 238.993 322.005" stroke="#031F43" stroke-width="2" stroke-miterlimit="10" stroke-linecap="round" stroke-linejoin="round"/>
<path d="M230.235 320.614C230.235 320.614 227.028 315.809 225.591 317.671C224.143 319.533 225.178 324.063 227.246 327.362C229.304 330.661 235.085 332.73 237.142 332.524" stroke="#031F43" stroke-width="2" stroke-miterlimit="10" stroke-linecap="round" stroke-linejoin="round"/>
<path d="M224.143 321.189C224.143 321.189 217.339 310.049 214.454 309.222C211.569 308.394 212.19 312.728 213.627 315.613C215.063 318.499 217.132 322.212 219.396 324.074C221.661 325.936 227.235 327.373 227.235 327.373" stroke="#031F43" stroke-width="2" stroke-miterlimit="10" stroke-linecap="round" stroke-linejoin="round"/>
<path d="M246.877 322.844C246.877 322.844 231.625 307.957 226.603 304.233C221.58 300.508 185.088 261.4 176.365 254.364C166.687 246.547 157.573 241.892 157.573 241.892C157.573 241.892 165.009 251.387 166.32 254.169C167.618 256.962 167.067 259.377 167.067 259.377C167.067 259.377 162.791 256.583 154.792 261.607C146.792 266.63 141.77 276.31 140.276 281.885C138.793 287.472 136 300.313 136 300.313C136 300.313 161.297 293.243 181.767 296.036C202.237 298.83 214.454 309.21 214.454 309.21" stroke="#031F43" stroke-width="2" stroke-miterlimit="10" stroke-linecap="round" stroke-linejoin="round"/>
<path d="M167.067 259.388L231.361 315.406" stroke="#031F43" stroke-width="2" stroke-miterlimit="10" stroke-linecap="round" stroke-linejoin="round"/>
<path d="M161.665 247.479C161.665 247.479 154.412 247.111 149.011 250.088C143.62 253.065 140.643 258.652 140.643 258.652L151.436 263.86" stroke="#031F43" stroke-width="2" stroke-miterlimit="10" stroke-linecap="round" stroke-linejoin="round"/>
<path d="M389.12 252.18C388.523 257.71 381.615 274.884 380.626 283.966C379.638 293.047 375.294 309.475 374.466 318.395C373.627 327.304 364.857 338.869 359.984 339.559C355.111 340.248 347.089 337.685 344.25 335.386C336.457 329.04 311.666 287.483 310.551 283.437C309.436 279.402 307.77 275.781 304.977 273.689C302.195 271.596 299.966 263.239 301.494 261.71C303.023 260.181 320.022 253.56 320.022 253.56" stroke="#031F43" stroke-width="2" stroke-miterlimit="10" stroke-linecap="round" stroke-linejoin="round"/>
<path d="M328.32 225.729C327.722 225.729 327.722 235.006 331.078 242.708C334.434 250.41 339.572 258.894 341.733 264.423C343.905 269.953 343.905 287.92 344.296 295.22C344.687 302.52 345.87 311.211 345.87 311.211" stroke="#031F43" stroke-width="2" stroke-miterlimit="10" stroke-linecap="round" stroke-linejoin="round"/>
<path d="M250.406 309.716C253.383 313.786 261.589 330.903 261.692 333.914C261.784 336.685 261.853 338.605 259.658 338.927C257.463 339.248 250.268 331.581 250.268 331.581" stroke="#031F43" stroke-width="2" stroke-miterlimit="10" stroke-linecap="round" stroke-linejoin="round"/>
<path d="M259.658 338.915C259.658 338.915 289.219 336.26 298.299 333.282C307.379 330.305 324.895 328.902 328.331 327.81C331.768 326.718 334.745 326.247 334.745 326.247" stroke="#031F43" stroke-width="2" stroke-miterlimit="10" stroke-linecap="round" stroke-linejoin="round"/>
<path d="M542.879 293.197C542.879 293.197 557.993 269.907 548.845 249.962C539.696 230.017 510.422 226.453 491.607 229.143" stroke="#031F43" stroke-width="2" stroke-miterlimit="10" stroke-linecap="round" stroke-linejoin="round"/>
<path d="M735.291 8.47227L669.273 7.3457" stroke="#031F43" stroke-width="2" stroke-miterlimit="10" stroke-linecap="round" stroke-linejoin="round"/>
</g>
<defs>
<clipPath id="clip0_1057_80552">
<rect width="884" height="1128" fill="white"/>
</clipPath>
</defs>
</svg>
