<svg width="666" height="851" viewBox="0 0 666 851" fill="none" xmlns="http://www.w3.org/2000/svg">
<rect width="666" height="851" fill="#FEF6E7"/>
<path d="M247.732 354.944C247.732 354.944 246.33 285.748 243.788 274.184C239.125 253.006 219.388 253.365 206.819 252.646C194.25 251.927 174.881 256.231 170.209 277.769C165.547 299.307 165.906 377.191 165.906 377.191" fill="white"/>
<path d="M247.732 354.944C247.732 354.944 246.33 285.748 243.788 274.184C239.125 253.006 219.388 253.365 206.819 252.646C194.25 251.927 174.881 256.231 170.209 277.769C165.547 299.307 165.906 377.191 165.906 377.191" stroke="#031F43" stroke-width="2" stroke-miterlimit="10" stroke-linecap="round" stroke-linejoin="round"/>
<path d="M233.394 219.293C233.394 219.293 235.092 215.267 239.215 212.302C243.348 209.337 246.834 208.169 247.579 204.997C248.325 201.825 249.7 213.578 248.747 218.233C247.795 222.896 244.408 231.046 243.564 234.011C242.719 236.976 243.141 238.458 240.069 239.725C236.996 240.992 233.924 242.69 233.825 244.91C233.717 247.129 235.307 250.202 230.222 255.495C225.137 260.787 219.738 261.317 219.738 261.317C219.738 261.317 222.703 272.755 205.238 274.867C187.773 276.987 191.69 261.631 191.69 261.631C191.69 261.631 184.494 260.994 179.517 256.761C174.54 252.529 172.105 242.466 171.045 238.971C169.985 235.475 166.382 232.402 160.983 228.7C155.584 224.998 155.898 202.338 155.898 202.338C155.898 202.338 162.465 210.388 165.96 211.44C169.455 212.5 174.746 217.684 174.746 217.684C174.746 217.684 188.294 202.014 197.934 201.376C207.574 200.738 214.24 205.402 219.316 206.776C224.401 208.151 230.115 210.379 231.489 212.707C232.864 215.061 233.394 219.293 233.394 219.293Z" fill="white" stroke="#031F43" stroke-width="2" stroke-miterlimit="10" stroke-linecap="round" stroke-linejoin="round"/>
<path d="M217.474 254.785C210.652 254.785 205.121 249.253 205.121 242.43C205.121 235.607 210.652 230.075 217.474 230.075C224.297 230.075 229.827 235.607 229.827 242.43C229.827 249.253 224.297 254.785 217.474 254.785Z" fill="#45D62F" stroke="#031F43" stroke-width="2" stroke-linecap="round" stroke-linejoin="round"/>
<path d="M189.893 254.785C183.071 254.785 177.54 249.253 177.54 242.43C177.54 235.607 183.071 230.075 189.893 230.075C196.715 230.075 202.246 235.607 202.246 242.43C202.246 249.253 196.715 254.785 189.893 254.785Z" fill="#45D62F" stroke="#031F43" stroke-width="2" stroke-linecap="round" stroke-linejoin="round"/>
<path d="M177.576 297.285C177.576 297.285 184.485 286.584 193.119 287.752C201.752 288.92 208.769 297.249 209.811 311.176C210.269 317.349 206.568 333.855 206.568 333.855L205.058 329.165L202.857 335.113L202.39 330.998L199.264 337.368L198.186 332.472L195.94 337.045C195.94 337.045 196.434 326.811 196.002 319.892C195.571 312.973 194.844 308.301 194.844 308.301C194.844 308.301 193.765 312.884 193.442 315.543C193.119 318.203 192.193 328.141 192.193 328.141C192.193 328.141 190.567 319.101 190.109 313.153C189.777 308.84 190.208 297.339 190.208 297.339" fill="white"/>
<path d="M177.576 297.285C177.576 297.285 184.485 286.584 193.119 287.752C201.752 288.92 208.769 297.249 209.811 311.176C210.269 317.349 206.568 333.855 206.568 333.855L205.058 329.165L202.857 335.113L202.39 330.998L199.264 337.368L198.186 332.472L195.94 337.045C195.94 337.045 196.434 326.811 196.002 319.892C195.571 312.973 194.844 308.301 194.844 308.301C194.844 308.301 193.765 312.884 193.442 315.543C193.119 318.203 192.193 328.141 192.193 328.141C192.193 328.141 190.567 319.101 190.109 313.153C189.777 308.84 190.208 297.339 190.208 297.339" stroke="#031F43" stroke-width="2" stroke-miterlimit="10" stroke-linecap="round" stroke-linejoin="round"/>
<path d="M198.311 332.705C198.311 332.705 199.497 326.595 199.434 320.422C199.371 314.249 198.832 310.862 198.832 310.862" stroke="#031F43" stroke-width="2" stroke-miterlimit="10" stroke-linecap="round" stroke-linejoin="round"/>
<path d="M202.121 331.645C202.121 331.645 203.307 325.535 203.244 319.362C203.181 313.189 202.642 309.802 202.642 309.802" stroke="#031F43" stroke-width="2" stroke-miterlimit="10" stroke-linecap="round" stroke-linejoin="round"/>
<path d="M205.283 329.704C205.283 329.704 206.469 323.594 206.406 317.421C206.343 311.248 205.804 307.861 205.804 307.861" stroke="#031F43" stroke-width="2" stroke-miterlimit="10" stroke-linecap="round" stroke-linejoin="round"/>
<path d="M217.761 231.971C217.761 231.971 220.636 236.059 220.34 241.972C220.034 247.884 217.312 252.88 217.312 252.88C217.312 252.88 214.581 246.428 214.581 241.972C214.581 236.518 217.761 231.971 217.761 231.971Z" fill="#031F43"/>
<path d="M190.19 231.971C190.19 231.971 193.065 236.059 192.768 241.972C192.463 247.884 189.741 252.88 189.741 252.88C189.741 252.88 187.009 246.428 187.009 241.972C187 236.518 190.19 231.971 190.19 231.971Z" fill="#031F43"/>
<path d="M231.821 234.963C231.821 234.963 229.243 220.11 214.545 220.11" stroke="#031F43" stroke-width="2" stroke-miterlimit="10" stroke-linecap="round" stroke-linejoin="round"/>
<path d="M190.001 220.263C190.001 220.263 175.15 222.842 175.15 237.542" stroke="#031F43" stroke-width="2" stroke-miterlimit="10" stroke-linecap="round" stroke-linejoin="round"/>
<path d="M209.523 258.01C209.523 258.01 206.083 249.924 203.765 249.924C201.438 249.924 198.931 258.01 198.931 258.01C198.931 258.01 201.348 256.528 203.855 256.528C206.361 256.519 209.523 258.01 209.523 258.01Z" fill="#031F43"/>
<path d="M213.971 264.992C214.572 265.423 215.507 266.717 214.815 267.948C214.222 269.008 213.324 270.671 209.658 269.341C204.268 267.391 199.83 270.904 196.479 269.341C193.927 268.155 194.071 266.07 194.934 265.252C195.958 264.273 199.111 263.482 200.234 262.09C201.357 260.697 201.752 258.442 204.277 258.397C207.062 258.352 208.32 262.458 209.991 263.204C211.662 263.95 212.964 264.273 213.971 264.992Z" stroke="#031F43" stroke-width="2" stroke-miterlimit="10" stroke-linecap="round" stroke-linejoin="round"/>
<path d="M213.88 264.992L211.329 267.903L210.826 263.491L213.88 264.992Z" stroke="#031F43" stroke-miterlimit="10" stroke-linecap="round" stroke-linejoin="round"/>
<path d="M210.512 263.042L208.032 266.142L207.691 260.913L210.512 263.042Z" stroke="#031F43" stroke-miterlimit="10" stroke-linecap="round" stroke-linejoin="round"/>
<path d="M206.99 259.592L204.753 263.689L203.324 258.63L206.99 259.592Z" stroke="#031F43" stroke-miterlimit="10" stroke-linecap="round" stroke-linejoin="round"/>
<path d="M202.866 259.942L202.013 265.172L200.503 261.407L202.866 259.942Z" stroke="#031F43" stroke-miterlimit="10" stroke-linecap="round" stroke-linejoin="round"/>
<path d="M200.117 262.844L199.345 267.445L197 263.905L200.117 262.844Z" stroke="#031F43" stroke-miterlimit="10" stroke-linecap="round" stroke-linejoin="round"/>
<path d="M227.68 253.635C227.68 253.635 223.915 257.57 217.115 258.145" stroke="#031F43" stroke-width="2" stroke-miterlimit="10" stroke-linecap="round" stroke-linejoin="round"/>
<path d="M195.571 256.177C195.571 256.177 190.415 258.469 186.237 256.591" stroke="#031F43" stroke-width="2" stroke-miterlimit="10" stroke-linecap="round" stroke-linejoin="round"/>
<path d="M240.599 216.229C240.491 216.543 235.514 223.848 235.622 230.632" stroke="#031F43" stroke-width="2" stroke-miterlimit="10" stroke-linecap="round" stroke-linejoin="round"/>
<path d="M167.2 216.948C167.308 217.262 172.285 224.567 172.177 231.351" stroke="#031F43" stroke-width="2" stroke-miterlimit="10" stroke-linecap="round" stroke-linejoin="round"/>
<path d="M226.799 323.98C226.799 323.98 219.998 313.306 211.5 314.474C203.01 315.642 196.101 323.944 195.068 337.836C194.61 343.991 198.266 360.452 198.266 360.452L199.749 355.77L201.914 361.701L202.372 357.594L205.444 363.956L206.505 359.068L208.715 363.632C208.715 363.632 208.229 353.425 208.652 346.524C209.074 339.624 209.793 334.969 209.793 334.969C209.793 334.969 210.853 339.534 211.176 342.194C211.491 344.844 212.407 354.755 212.407 354.755C212.407 354.755 214.006 345.743 214.464 339.812C214.797 335.509 214.366 324.043 214.366 324.043" fill="white"/>
<path d="M226.799 323.98C226.799 323.98 219.998 313.306 211.5 314.474C203.01 315.642 196.101 323.944 195.068 337.836C194.61 343.991 198.266 360.452 198.266 360.452L199.749 355.77L201.914 361.701L202.372 357.594L205.444 363.956L206.505 359.068L208.715 363.632C208.715 363.632 208.229 353.425 208.652 346.524C209.074 339.624 209.793 334.969 209.793 334.969C209.793 334.969 210.853 339.534 211.176 342.194C211.491 344.844 212.407 354.755 212.407 354.755C212.407 354.755 214.006 345.743 214.464 339.812C214.797 335.509 214.366 324.043 214.366 324.043" stroke="#031F43" stroke-width="2" stroke-miterlimit="10" stroke-linecap="round" stroke-linejoin="round"/>
<path d="M206.396 359.293C206.396 359.293 205.229 353.201 205.291 347.046C205.354 340.891 205.884 337.512 205.884 337.512" stroke="#031F43" stroke-width="2" stroke-miterlimit="10" stroke-linecap="round" stroke-linejoin="round"/>
<path d="M202.65 358.241C202.65 358.241 201.482 352.149 201.545 345.994C201.608 339.839 202.138 336.461 202.138 336.461" stroke="#031F43" stroke-width="2" stroke-miterlimit="10" stroke-linecap="round" stroke-linejoin="round"/>
<path d="M199.533 356.3C199.533 356.3 198.365 350.208 198.428 344.054C198.491 337.899 199.021 334.52 199.021 334.52" stroke="#031F43" stroke-width="2" stroke-miterlimit="10" stroke-linecap="round" stroke-linejoin="round"/>
<path d="M134.444 155.497L273.669 138.039V362.024L132.315 405.459L134.444 155.497Z" stroke="#031F43" stroke-width="2" stroke-miterlimit="10" stroke-linecap="round" stroke-linejoin="round"/>
<path d="M257.489 155.92V353.084L150.193 383.742L149.34 169.362L257.489 155.92Z" stroke="#031F43" stroke-width="2" stroke-miterlimit="10" stroke-linecap="round" stroke-linejoin="round"/>
<path d="M204.789 163.845L204.69 366.463" stroke="#031F43" stroke-width="4" stroke-miterlimit="10" stroke-linecap="round" stroke-linejoin="round"/>
<path d="M256.68 216.507L163.822 235.547" stroke="#031F43" stroke-width="4" stroke-miterlimit="10" stroke-linecap="round" stroke-linejoin="round"/>
<path d="M255.377 299.927L163.822 319.012" stroke="#031F43" stroke-width="4" stroke-miterlimit="10" stroke-linecap="round" stroke-linejoin="round"/>
<path d="M171.009 136.089L167.209 416.196C167.209 416.196 153.428 418.937 147.867 423.573C142.306 428.21 136.295 423.573 130.743 423.573C125.191 423.573 116.396 426.35 116.396 426.35L120.286 144.904" fill="#A7CCE9"/>
<path d="M147.866 423.573V262.467" stroke="#031F43" stroke-width="2" stroke-miterlimit="10" stroke-linecap="round" stroke-linejoin="round"/>
<path d="M130.734 423.573V345.042" stroke="#031F43" stroke-width="2" stroke-miterlimit="10" stroke-linecap="round" stroke-linejoin="round"/>
<path d="M273.669 138.039L257.489 155.92" stroke="#031F43" stroke-width="2" stroke-miterlimit="10" stroke-linecap="round" stroke-linejoin="round"/>
<path d="M257.489 353.084L273.669 362.024" stroke="#031F43" stroke-width="2" stroke-miterlimit="10" stroke-linecap="round" stroke-linejoin="round"/>
<path d="M490.417 592.056L488.296 621.42L475.252 628.213L459.907 623.092V603.872L490.417 592.056Z" fill="#347CE1" stroke="#031F43" stroke-width="2" stroke-miterlimit="10" stroke-linecap="round" stroke-linejoin="round"/>
<path d="M475.251 628.213V599.99" stroke="#031F43" stroke-width="2" stroke-miterlimit="10" stroke-linecap="round" stroke-linejoin="round"/>
<path d="M315.813 662.582L313.702 689.924L300.648 698.739L280.56 689.116V657.433L315.813 662.582Z" fill="#347CE1" stroke="#031F43" stroke-width="2" stroke-miterlimit="10" stroke-linecap="round" stroke-linejoin="round"/>
<path d="M299.83 698.739L300.738 653.552" stroke="#031F43" stroke-width="2" stroke-miterlimit="10" stroke-linecap="round" stroke-linejoin="round"/>
<path d="M198.392 618.545L196.281 645.887L183.227 654.702L166.292 648.044V613.396L198.392 618.545Z" fill="#347CE1" stroke="#031F43" stroke-width="2" stroke-miterlimit="10" stroke-linecap="round" stroke-linejoin="round"/>
<path d="M183.227 654.702L184.898 609.811" stroke="#031F43" stroke-width="2" stroke-miterlimit="10" stroke-linecap="round" stroke-linejoin="round"/>
<path d="M164.918 617.53L319.514 672.708L494.082 593.26L512.984 400.283C514.7 389.762 508.034 379.689 497.676 377.164L405.635 345.06C396.624 341.915 388.871 340.486 380.183 344.458L177.181 437.321C169.707 440.735 164.918 448.202 164.918 456.423V617.53Z" fill="#A7CCE9"/>
<path d="M169.168 443.26L203.055 456.235L379.959 363.596L476.608 394.389C485.143 397.112 490.453 405.621 489.123 414.489L475.943 561.39" stroke="#031F43" stroke-width="2" stroke-miterlimit="10" stroke-linecap="round" stroke-linejoin="round"/>
<path d="M203.055 456.244V552.422" stroke="#031F43" stroke-width="2" stroke-miterlimit="10" stroke-linecap="round" stroke-linejoin="round"/>
<path d="M164.999 567.428L319.002 627.539L476.114 561.785L478.387 535.26L372.906 492.032L164.999 567.428Z" stroke="#031F43" stroke-width="2" stroke-miterlimit="10" stroke-linecap="round" stroke-linejoin="round"/>
<path d="M427.771 489.966C427.771 489.966 446.314 509.589 454.562 506.103C462.809 502.626 464.642 476.254 458.901 451.652C453.16 427.051 426.954 379.68 408.6 377.973C390.245 376.266 374.838 368.493 366.303 368.691C357.768 368.889 325.049 357.711 267.371 371.737C231.184 380.534 240.86 393.913 245.639 397.974C251.766 403.186 277.631 413.321 277.631 413.321L289.077 400.095C289.077 400.095 317.251 421.552 322.389 423.582C327.528 425.613 357.84 439.953 368.738 465.085C371.577 471.636 377.21 487.495 403.533 499.804C409.453 502.572 429.29 504.171 429.29 504.171L427.771 489.966Z" fill="#E72A8B"/>
<path d="M442.478 502.842L406.12 470.144L415.131 448.768C415.131 448.768 437.007 459.577 442.99 464.196" stroke="#031F43" stroke-width="2" stroke-miterlimit="10" stroke-linecap="round" stroke-linejoin="round"/>
<path d="M310.764 558.092C310.764 558.092 310.396 566.269 305.149 576.808C299.902 587.348 280.344 602.722 280.156 604.097C279.976 605.462 281.341 609.111 282.743 609.587C284.135 610.063 287.127 609.802 287.127 609.802C287.127 609.802 288.627 611.474 289.993 611.653C291.359 611.833 292.778 610.809 292.778 610.809C292.778 610.809 294.44 612.615 295.806 612.803C297.171 612.992 298.303 612.13 298.303 612.13C298.303 612.13 297.8 613.226 299.327 613.54C300.855 613.855 310.467 605.049 316.334 601.671C322.209 598.301 325.992 596.917 328.031 592.676C330.07 588.435 324.402 583.817 325.39 576.215C326.378 568.605 329.118 560.401 329.118 560.401L310.764 558.092Z" fill="white" stroke="#031F43" stroke-width="2" stroke-miterlimit="10" stroke-linecap="round" stroke-linejoin="round"/>
<path d="M348.676 557.274C348.676 557.274 354.992 564.004 356.384 568.048C357.777 572.091 356.151 595.129 356.151 595.129C356.151 595.129 353.051 596.828 352.809 598.544C352.566 600.26 351.803 601.886 351.803 601.886C351.803 601.886 346.834 604.537 346.834 606.091C346.834 607.646 348.739 608.526 351.407 607.772C354.075 607.017 363.284 603.737 367.426 596.091C371.567 588.444 373.005 581.031 377.829 576.71C382.653 572.388 385.025 568.272 382.923 563.519C380.812 558.757 369.393 554.552 365.18 551.021C360.966 547.489 352.818 537.534 352.818 537.534L348.676 557.274Z" fill="white" stroke="#031F43" stroke-width="2" stroke-miterlimit="10" stroke-linecap="round" stroke-linejoin="round"/>
<path d="M303.963 395.054C304.071 394.398 306.416 380.381 306.416 380.381C306.416 380.381 316.388 389.501 321.572 395.791C326.486 401.757 330.78 406.357 331.023 412.836C331.265 419.314 303.963 395.054 303.963 395.054Z" fill="white" stroke="#031F43" stroke-width="2" stroke-miterlimit="10" stroke-linecap="round" stroke-linejoin="round"/>
<path d="M331.023 412.836C330.807 412.207 329.379 406.447 345.649 401.443C354.157 398.828 377.928 394.155 378.09 394.137C378.252 394.119 379.914 407.265 379.914 407.265L331.023 412.836Z" fill="white" stroke="#031F43" stroke-width="2" stroke-miterlimit="10" stroke-linecap="round" stroke-linejoin="round"/>
<path d="M363.661 379.932C349.133 379.932 337.356 368.064 337.356 353.425C337.356 338.786 349.133 326.918 363.661 326.918C378.189 326.918 389.966 338.786 389.966 353.425C389.966 368.064 378.189 379.932 363.661 379.932Z" fill="white"/>
<path d="M338.587 328.428C338.587 328.428 323.835 343.703 332.622 357.657C344.633 376.724 336.997 388.36 336.997 388.36C336.997 388.36 341.651 392.403 354.21 390.382C360.418 389.384 369.456 380.579 369.456 380.579C369.456 380.579 369.375 377.847 364.488 377.488C359.241 377.101 355.495 375.412 351.776 370.605C340.438 355.968 338.587 328.428 338.587 328.428Z" fill="#031F43"/>
<path d="M376.077 343.496C374.325 338.617 367.632 335.733 362.916 337.881C361.065 338.725 359.062 339.992 356.995 341.879C348.748 349.427 335.775 347.423 335.775 347.423C335.775 347.423 331.508 339.633 335.667 327.529C340.357 313.872 365.431 307.42 378.162 315.974C391.754 325.112 390.218 333.864 402.562 341.825C419.838 352.967 420.97 363.516 420.97 363.516C420.97 363.516 409.039 372.564 402.868 379.626C393.56 390.283 385.142 377.757 385.142 377.757L376.077 343.496Z" fill="#031F43"/>
<path d="M378.413 352.248C378.413 352.248 378.737 347.962 382.24 347.288C385.744 346.614 388.475 351.385 387.541 355.033C386.876 357.639 384.747 359.93 383.588 361.027C383.112 361.476 382.896 362.132 383.013 362.779L385.439 376.149C386.22 380.462 383.804 384.73 379.68 386.23C378.629 386.608 377.47 386.949 376.203 387.201C375.296 387.38 374.361 387.488 373.454 387.551C369.259 387.812 365.476 385.008 364.353 380.956C364.021 379.761 362.574 377.991 363.814 378.036C372.924 378.35 375.044 372.114 374.936 371.863" fill="white"/>
<path d="M378.413 352.248C378.413 352.248 378.737 347.962 382.24 347.288C385.744 346.614 388.475 351.385 387.541 355.033C386.876 357.639 384.747 359.93 383.588 361.027C383.112 361.476 382.896 362.132 383.013 362.779L385.439 376.149C386.22 380.462 383.804 384.73 379.68 386.23C378.629 386.608 377.47 386.949 376.203 387.201C375.296 387.38 374.361 387.488 373.454 387.551C369.259 387.812 365.476 385.008 364.353 380.956C364.021 379.761 362.574 377.991 363.814 378.036C372.924 378.35 375.044 372.114 374.936 371.863" stroke="#031F43" stroke-width="2" stroke-miterlimit="10" stroke-linecap="round" stroke-linejoin="round"/>
<path d="M356.483 356.435C356.825 358.412 357.175 362.41 357.175 362.41C357.175 362.41 360.499 362.941 361.918 361.377" stroke="#031F43" stroke-width="2" stroke-miterlimit="10" stroke-linecap="round" stroke-linejoin="round"/>
<path d="M365.89 349.04C365.89 349.04 364.991 351.718 361.38 351.367" stroke="#031F43" stroke-width="2" stroke-miterlimit="10" stroke-linecap="round" stroke-linejoin="round"/>
<path d="M352.53 354.297C352.53 354.297 351.344 356.857 347.787 356.112" stroke="#031F43" stroke-width="2" stroke-miterlimit="10" stroke-linecap="round" stroke-linejoin="round"/>
<path d="M367.534 364.729L358.568 368.431C358.568 368.431 360.823 372.249 364.866 370.632C368.836 369.033 367.534 364.729 367.534 364.729Z" stroke="#031F43" stroke-width="2" stroke-miterlimit="10" stroke-linecap="round" stroke-linejoin="round"/>
<path d="M364.973 357.109C360.914 357.109 357.624 353.818 357.624 349.759C357.624 345.7 360.914 342.409 364.973 342.409C369.032 342.409 372.322 345.7 372.322 349.759C372.322 353.818 369.032 357.109 364.973 357.109Z" stroke="#031F43" stroke-width="2" stroke-miterlimit="10" stroke-linecap="round" stroke-linejoin="round"/>
<path d="M348.416 362.788C344.357 362.788 341.067 359.497 341.067 355.438C341.067 351.379 344.357 348.088 348.416 348.088C352.474 348.088 355.765 351.379 355.765 355.438C355.765 359.497 352.474 362.788 348.416 362.788Z" stroke="#031F43" stroke-width="2" stroke-miterlimit="10" stroke-linecap="round" stroke-linejoin="round"/>
<path d="M389.94 399.394C389.473 399.601 333.961 409.323 333.961 409.323L325.112 408.469L295.24 378.916L296.561 446.054L325.947 471.914L391.943 466.954L389.94 399.394Z" fill="#F3B63F"/>
<path d="M325.12 408.478L325.956 471.923L335.524 471.734L333.961 409.332L325.12 408.478Z" stroke="#031F43" stroke-width="2" stroke-miterlimit="10" stroke-linecap="round" stroke-linejoin="round"/>
<path d="M288.69 400.31C292.508 400.84 297 401.586 299.794 402.44C302.588 403.293 307.952 403.464 308.662 404.327C309.371 405.189 307.79 406.861 306.505 407.211C305.221 407.561 302.058 407.112 302.058 407.112C302.058 407.112 312.902 420.563 313.351 422.612C313.809 424.669 312.597 425.784 312.597 425.784C312.597 425.784 313.809 428.344 313.028 429.926C312.255 431.498 309.946 430.528 309.946 430.528C309.946 430.528 309.317 431.93 307.979 432.262C306.64 432.594 305.706 431.768 305.706 431.768C305.706 431.768 303.819 432.37 302.606 432.217C301.394 432.064 290.164 423.501 286.92 419.233C283.677 414.965 282.006 411.623 279.985 410.077" fill="white"/>
<path d="M288.69 400.31C292.508 400.84 297 401.586 299.794 402.44C302.588 403.293 307.952 403.464 308.662 404.327C309.371 405.189 307.79 406.861 306.505 407.211C305.221 407.561 302.058 407.112 302.058 407.112C302.058 407.112 312.902 420.563 313.351 422.612C313.809 424.669 312.597 425.784 312.597 425.784C312.597 425.784 313.809 428.344 313.028 429.926C312.255 431.498 309.946 430.528 309.946 430.528C309.946 430.528 309.317 431.93 307.979 432.262C306.64 432.594 305.706 431.768 305.706 431.768C305.706 431.768 303.819 432.37 302.606 432.217C301.394 432.064 290.164 423.501 286.92 419.233C283.677 414.965 282.006 411.623 279.985 410.077" stroke="#031F43" stroke-width="2" stroke-linecap="round" stroke-linejoin="round"/>
<path d="M312.605 425.793L302.777 415.307" stroke="#031F43" stroke-width="2" stroke-linecap="round" stroke-linejoin="round"/>
<path d="M310.036 430.456L300.199 419.97" stroke="#031F43" stroke-width="2" stroke-linecap="round" stroke-linejoin="round"/>
<path d="M305.886 431.93L296.057 421.444" stroke="#031F43" stroke-width="2" stroke-linecap="round" stroke-linejoin="round"/>
<path d="M401.044 433.421C401.044 433.421 400.739 429.917 401.808 429.342C402.877 428.767 407.89 427.365 409.219 427.895C410.549 428.416 412.148 433.897 412.912 435.272C413.675 436.647 409.058 445.452 409.336 448.633C409.615 451.814 413.622 451.931 413.622 451.931C413.622 451.931 406.704 467.853 406.47 467.853C401.754 467.853 388.952 458.472 384.406 454.222C379.86 449.963 374.433 445.974 374.11 444.078C373.787 442.182 375.233 440.43 375.233 440.43C375.233 440.43 373.302 438.372 373.921 436.925C374.919 434.598 378.297 434.392 378.297 434.392C378.297 434.392 376.06 432.127 377.353 430.411C378.647 428.695 381.755 429.342 381.755 429.342C381.755 429.342 382.052 426.053 384.181 425.918C386.742 425.757 395.088 429.62 397.154 431.202C399.229 432.774 401.044 433.421 401.044 433.421Z" fill="white" stroke="#031F43" stroke-width="2" stroke-miterlimit="10" stroke-linecap="round" stroke-linejoin="round"/>
<path d="M381.764 429.333C381.764 429.333 385.547 431.121 388.808 432.864C392.069 434.607 396.92 438.129 396.92 438.129" stroke="#031F43" stroke-width="2" stroke-miterlimit="10" stroke-linecap="round" stroke-linejoin="round"/>
<path d="M378.261 434.418C378.261 434.418 382.043 436.207 385.304 437.95C388.565 439.693 393.417 443.215 393.417 443.215" stroke="#031F43" stroke-width="2" stroke-miterlimit="10" stroke-linecap="round" stroke-linejoin="round"/>
<path d="M374.892 439.621C374.892 439.621 378.674 441.409 381.935 443.152C385.197 444.895 390.048 448.418 390.048 448.418" stroke="#031F43" stroke-width="2" stroke-miterlimit="10" stroke-linecap="round" stroke-linejoin="round"/>
<path d="M401.044 433.421C401.044 433.421 404.242 435.82 405.671 435.694C407.099 435.569 408.249 435.11 408.249 435.11" stroke="#031F43" stroke-width="2" stroke-miterlimit="10" stroke-linecap="round" stroke-linejoin="round"/>
<path d="M323.485 456.846C323.485 456.846 271.692 445.992 254.012 466.379C236.332 486.758 346.789 561.848 346.789 561.848L362.637 538.486L326.647 500.2L323.485 456.846Z" fill="#347CE1" stroke="#031F43" stroke-width="2" stroke-miterlimit="10" stroke-linecap="round" stroke-linejoin="round"/>
<path d="M310.396 489.831C310.342 489.22 303.029 482.705 303.029 482.705" stroke="#031F43" stroke-width="2" stroke-miterlimit="10" stroke-linecap="round" stroke-linejoin="round"/>
<path d="M429.29 504.18C429.29 504.18 354.408 419.296 329.442 435.299C304.475 451.293 303.568 559.35 303.568 559.35L331.652 575.416C331.652 575.416 345.155 550.383 349.494 531.792C353.833 513.202 354.291 504.063 354.291 504.063C354.291 504.063 366.932 540.939 383.597 552.036C400.262 563.133 415.517 553.168 422.093 543.644C431.221 530.435 429.29 504.18 429.29 504.18Z" fill="#347CE1" stroke="#031F43" stroke-width="2" stroke-miterlimit="10" stroke-linecap="round" stroke-linejoin="round"/>
<path d="M354.291 504.063C354.291 504.063 355.028 494.584 356.196 486.318" stroke="#031F43" stroke-width="2" stroke-miterlimit="10" stroke-linecap="round" stroke-linejoin="round"/>
<path d="M287.693 399.043L268.647 386.743" stroke="#031F43" stroke-width="2" stroke-miterlimit="10" stroke-linecap="round" stroke-linejoin="round"/>
<path d="M380.3 205.851C373.835 205.851 368.594 196.216 368.594 184.331C368.594 172.446 373.835 162.811 380.3 162.811C386.765 162.811 392.006 172.446 392.006 184.331C392.006 196.216 386.765 205.851 380.3 205.851Z" fill="#F3B63F"/>
<path d="M360.337 220.101H335.604L341.175 171.626C341.552 168.382 344.292 165.929 347.562 165.929C350.787 165.929 353.519 168.319 353.941 171.518L360.337 220.101Z" fill="#F3B63F"/>
<path d="M355.666 183.99H377.065" stroke="#031F43" stroke-width="2" stroke-miterlimit="10" stroke-linecap="round" stroke-linejoin="round"/>
<path d="M334.293 225.645L288.771 350.352" stroke="#031F43" stroke-width="2" stroke-miterlimit="10" stroke-linecap="round" stroke-linejoin="round"/>
<path d="M362.44 225.205L395.447 315.534" stroke="#031F43" stroke-width="2" stroke-miterlimit="10" stroke-linecap="round" stroke-linejoin="round"/>
<path d="M341.642 233.768L329.468 321.851" stroke="#031F43" stroke-width="2" stroke-miterlimit="10" stroke-linecap="round" stroke-linejoin="round"/>
</svg>
