<svg width="666" height="851" viewBox="0 0 666 851" fill="none" xmlns="http://www.w3.org/2000/svg">
<g clip-path="url(#clip0_1057_73348)">
<rect width="666" height="851" fill="#EAFAFE" fill-opacity="0.5"/>
<g clip-path="url(#clip1_1057_73348)">
<path d="M182.833 238.408C182.833 238.408 178.072 244.631 177.922 252.645C177.771 260.658 176.439 274.745 180.157 288.093C183.875 301.441 188.045 308.415 191.311 312.122C194.589 315.828 208.268 319.835 215.113 317.907C221.958 315.978 245.91 277.274 243.524 264.815C241.15 252.356 243.826 232.484 232.22 228.189C220.614 223.882 182.833 238.408 182.833 238.408Z" fill="white"/>
<path d="M-5.55566 734.466L241.173 645.221V607.51L221.24 600.639L223.023 582.546L110.06 543.818L53.839 545.088L-5.55566 545.85V734.466Z" fill="#A7CCE9"/>
<path d="M287.769 499.779C287.769 499.779 304.749 613.514 295.066 679.942C290.375 712.111 285.221 731.729 285.221 731.729" stroke="#031F43" stroke-width="2" stroke-miterlimit="10" stroke-linecap="round" stroke-linejoin="round"/>
<path d="M156.413 415.049C156.413 415.049 136.074 437.889 119.338 441.999C102.601 446.11 91.7832 447.391 91.7832 447.391L130.399 348.055C130.399 348.055 149.707 333.68 156.656 331.37C163.629 329.061 156.413 415.049 156.413 415.049Z" fill="#45D62F" stroke="#031F43" stroke-width="2" stroke-linecap="round" stroke-linejoin="round"/>
<path d="M258.095 329.661C258.095 329.661 262.056 334.234 271.646 337.351C281.236 340.469 295.633 344.418 303.556 356.069C311.478 367.708 320.454 395.362 320.454 409.299C320.454 423.236 323.373 479.78 323.165 489.133C322.956 498.486 323.165 525.516 321.288 534.454C319.412 543.391 313.157 559.406 309.822 563.771C306.486 568.135 300.648 575.825 299.606 580.409C298.564 584.982 294.602 599.127 288.765 605.154C282.927 611.181 268.322 618.456 268.322 618.456L246.42 635.51C246.42 635.51 248.296 619.715 243.084 607.648C237.872 595.593 232.034 589.554 232.034 589.554L241.833 585.19C241.833 585.19 242.458 573.966 248.921 565.226C255.384 556.496 263.724 550.261 268.113 541.105C272.492 531.96 276.244 497.654 276.244 497.654C276.244 497.654 250.172 497.654 238.497 495.576C226.822 493.497 201.167 493.082 189.909 489.133C178.651 485.184 172.176 482.066 172.176 482.066C172.176 482.066 171.968 470.843 166.964 462.933C161.961 455.024 155.498 439.02 153.83 430.706C152.162 422.393 148.409 381.437 146.741 368.123C145.073 354.821 145.073 336.312 152.579 332.155C160.084 327.998 175.732 325.92 183.863 324.465C191.982 323.01 258.095 329.661 258.095 329.661Z" fill="#45D62F" stroke="#031F43" stroke-width="2" stroke-linecap="round" stroke-linejoin="round"/>
<path d="M196.627 217.162C196.627 217.162 203.217 196.736 232.451 199.576C251.493 201.424 269.283 216.076 266.342 245.971C264.025 269.538 254.4 265.762 254.4 265.762L196.627 217.162Z" fill="#031F43"/>
<path d="M190.071 214.887C190.071 214.887 198.862 200.696 219.815 203.594C246.281 207.255 256.195 223.247 256.925 243.407C257.481 258.626 190.071 214.887 190.071 214.887Z" fill="#E72A8B"/>
<path d="M231.374 263.868C229.81 254.227 235.034 246.837 223.788 241.167C212.159 235.313 207.862 241.121 192.863 246.848C186.191 249.4 178.825 247.287 178.825 247.287C178.825 247.287 169.026 236.756 180.481 220.822C201.341 191.805 268.924 220.487 262.496 263.857C258.141 293.231 265.542 304.94 282.186 307.561C286.553 308.242 272.99 329.5 258.234 331.982C233.61 336.116 232.127 323.53 232.127 323.53L236.517 276.165C236.517 276.165 232.833 272.898 231.374 263.868Z" fill="#031F43"/>
<path d="M236.447 277.308C236.447 277.308 239.586 270.427 245.806 271.431C252.025 272.436 253.658 281.973 249.894 287.435C247.207 291.338 242.296 293.843 239.713 294.952C238.648 295.414 237.895 296.361 237.698 297.492L233.609 321.036C232.289 328.634 223.961 335.631 216.236 335.966C203.159 336.52 196.383 333.437 196.383 333.437C196.383 333.437 194.507 310.551 196.638 311.06C211.035 314.5 218.842 308.069 218.819 307.584" fill="white"/>
<path d="M236.447 277.308C236.447 277.308 239.586 270.427 245.806 271.431C252.025 272.436 253.658 281.973 249.894 287.435C247.207 291.338 242.296 293.843 239.713 294.952C238.648 295.414 237.895 296.361 237.698 297.492L233.609 321.036C232.289 328.634 223.961 335.631 216.236 335.966C203.159 336.52 196.383 333.437 196.383 333.437C196.383 333.437 194.507 310.551 196.638 311.06C211.035 314.5 218.842 308.069 218.819 307.584" stroke="#031F43" stroke-width="2" stroke-miterlimit="10" stroke-linecap="round" stroke-linejoin="round"/>
<path d="M207.699 290.668C207.699 290.668 200.611 290.957 198.248 291.049C196.337 291.13 190.604 291.361 190.604 291.361C190.604 291.361 192.028 299.028 199.707 298.797C207.259 298.566 207.699 290.668 207.699 290.668Z" stroke="#031F43" stroke-width="2" stroke-miterlimit="10" stroke-linecap="round" stroke-linejoin="round"/>
<path d="M184.35 262.021C184.362 262.217 183.423 266.339 187.778 266.408C191.612 266.466 191.415 262.009 191.415 262.009" fill="#45D62F"/>
<path d="M184.35 262.021C184.362 262.217 183.423 266.339 187.778 266.408C191.612 266.466 191.415 262.009 191.415 262.009" stroke="#031F43" stroke-width="2" stroke-linecap="round" stroke-linejoin="round"/>
<path d="M211.023 262.182C211.208 262.24 210.085 266.743 214.44 266.812C218.274 266.87 217.926 263.025 217.926 263.025" fill="#45D62F"/>
<path d="M211.023 262.182C211.208 262.24 210.085 266.743 214.44 266.812C218.274 266.87 217.926 263.025 217.926 263.025" stroke="#031F43" stroke-width="2" stroke-linecap="round" stroke-linejoin="round"/>
<path d="M206.865 265.462C206.865 265.462 211.568 257.159 222.409 265.254" stroke="#031F43" stroke-width="2" stroke-miterlimit="10" stroke-linecap="round" stroke-linejoin="round"/>
<path d="M196.638 311.083C190.025 309.166 185.287 306.221 180.863 292.111C176.438 277.99 177.064 243.8 179.404 242.345" stroke="#031F43" stroke-width="2" stroke-miterlimit="10" stroke-linecap="round" stroke-linejoin="round"/>
<path d="M185.438 303.473C185.438 303.473 185.033 309.651 178.396 314.604C174.006 317.884 165.505 317.976 165.505 317.976C165.505 317.976 168.69 325.701 179.809 330.204C186.956 333.091 196.198 330.804 196.198 330.804L195.781 311.002L185.438 303.473Z" fill="#031F43"/>
<path d="M180.897 264.03C180.897 264.03 184.859 260.15 189.665 261.305C192.41 261.963 196.557 264.619 195.016 271.362C193.928 276.142 191.704 281.731 191.704 281.731C191.704 281.731 197.843 284.121 201.132 282.401" stroke="#031F43" stroke-width="2" stroke-miterlimit="10" stroke-linecap="round" stroke-linejoin="round"/>
<path d="M196.326 319.662L210.445 335.446L181.883 357.939L185.161 328.172L196.326 319.662Z" fill="#45D62F" stroke="#031F43" stroke-width="2" stroke-linecap="round" stroke-linejoin="round"/>
<path d="M210.445 335.446L230.02 363.909L262.763 330.585L243.791 311.741L210.445 335.446Z" fill="#45D62F" stroke="#031F43" stroke-width="2" stroke-linecap="round" stroke-linejoin="round"/>
<path d="M209.148 337.755C209.148 337.755 207.063 401.632 210.538 426.284C214.024 450.936 217.151 465.173 218.553 474.538C219.942 483.914 220.093 493.336 220.093 493.336" stroke="#031F43" stroke-width="2" stroke-miterlimit="10" stroke-linecap="round" stroke-linejoin="round"/>
<path d="M241.821 585.19C241.821 585.19 258.442 585.779 265.09 596.956C271.75 608.133 268.299 618.456 268.299 618.456" stroke="#031F43" stroke-width="2" stroke-miterlimit="10" stroke-linecap="round" stroke-linejoin="round"/>
<path d="M276.233 497.654C276.233 497.654 279.731 480.646 278.445 464.735C277.16 448.823 271.403 408.086 271.403 399.103" stroke="#031F43" stroke-width="2" stroke-miterlimit="10" stroke-linecap="round" stroke-linejoin="round"/>
<path d="M185.578 495.449L175.084 504.294L183.018 521.186C183.018 521.186 201.573 516.626 214.487 519.039C227.402 521.452 248.91 530.435 248.91 530.435L263.701 518.369L256.705 502.689C256.705 502.689 234.386 505.506 219.862 502.55C205.337 499.606 185.439 495.449 185.578 495.449Z" stroke="#031F43" stroke-width="2" stroke-miterlimit="10" stroke-linecap="round" stroke-linejoin="round"/>
<path d="M252.187 520.332C255.213 520.332 257.666 517.887 257.666 514.87C257.666 511.854 255.213 509.409 252.187 509.409C249.162 509.409 246.709 511.854 246.709 514.87C246.709 517.887 249.162 520.332 252.187 520.332Z" stroke="#031F43" stroke-width="2" stroke-miterlimit="10" stroke-linecap="round" stroke-linejoin="round"/>
<path d="M186.261 512.954C189.286 512.954 191.739 510.508 191.739 507.492C191.739 504.476 189.286 502.031 186.261 502.031C183.235 502.031 180.782 504.476 180.782 507.492C180.782 510.508 183.235 512.954 186.261 512.954Z" stroke="#031F43" stroke-width="2" stroke-miterlimit="10" stroke-linecap="round" stroke-linejoin="round"/>
<path d="M-5.55566 347.339L25.0682 297.769L93.8562 303.473L150.749 348.321L-5.55566 619.911V347.339Z" fill="#A7CCE9"/>
<path d="M7.20801 326.232L78.741 332.964L135.31 376.46" stroke="#031F43" stroke-width="2" stroke-miterlimit="10" stroke-linecap="round" stroke-linejoin="round"/>
<path d="M93.8559 303.473C93.8559 304.79 10.5088 458.222 10.5088 458.222" stroke="#031F43" stroke-width="2" stroke-miterlimit="10" stroke-linecap="round" stroke-linejoin="round"/>
<path d="M114.358 361.819L13.7295 543.529" stroke="#031F43" stroke-width="2" stroke-miterlimit="10" stroke-linecap="round" stroke-linejoin="round"/>
<path d="M44.9316 552.836L81.7869 566.888" stroke="#031F43" stroke-width="2" stroke-miterlimit="10" stroke-linecap="round" stroke-linejoin="round"/>
<path d="M28.1374 582.661L98.628 563.205C98.628 563.205 107.489 574.382 123.078 582.465C136.792 589.566 181.743 592.28 181.743 592.28L32.5619 640.187L14.4238 632.682" stroke="#031F43" stroke-width="2" stroke-miterlimit="10" stroke-linecap="round" stroke-linejoin="round"/>
<path d="M167.961 597.337L182.809 602.337L182.589 609.08L36.0947 653.05L17.7598 645.868" stroke="#031F43" stroke-width="2" stroke-miterlimit="10" stroke-linecap="round" stroke-linejoin="round"/>
<path d="M182.809 602.337L36.5346 646.953L16.6592 639.552" stroke="#031F43" stroke-width="2" stroke-miterlimit="10" stroke-linecap="round" stroke-linejoin="round"/>
<path d="M18.0488 663.569L37.7274 674.781L39.7775 716.557" stroke="#031F43" stroke-width="2" stroke-miterlimit="10" stroke-linecap="round" stroke-linejoin="round"/>
<path d="M17.0303 680.635L241.173 607.51" stroke="#031F43" stroke-width="2" stroke-miterlimit="10" stroke-linecap="round" stroke-linejoin="round"/>
<path d="M220.22 652.103L219.699 614.9L184.431 603.942" stroke="#031F43" stroke-width="2" stroke-miterlimit="10" stroke-linecap="round" stroke-linejoin="round"/>
<path d="M232.023 589.554C232.023 589.554 231.236 579.682 229.394 578.816C226.95 577.673 223.661 572.812 222.363 571.519C221.078 570.237 216.908 571.034 216.19 573.378C215.182 576.668 216.19 579.809 216.19 579.809" stroke="#031F43" stroke-width="2" stroke-miterlimit="10" stroke-linecap="round" stroke-linejoin="round"/>
<path d="M246.582 629.391C246.582 629.391 241.902 632.312 241.902 632.046" stroke="#031F43" stroke-width="2" stroke-miterlimit="10" stroke-linecap="round" stroke-linejoin="round"/>
<path d="M53.8389 545.088C54.0242 543.368 221.24 600.628 221.24 600.628" stroke="#031F43" stroke-width="2" stroke-miterlimit="10" stroke-linecap="round" stroke-linejoin="round"/>
<path d="M229.409 629.211C229.529 627.366 228.54 625.799 227.2 625.712C225.859 625.625 224.675 627.051 224.554 628.896C224.434 630.741 225.423 632.308 226.763 632.395C228.104 632.482 229.288 631.057 229.409 629.211Z" stroke="#031F43" stroke-width="2" stroke-miterlimit="10" stroke-linecap="round" stroke-linejoin="round"/>
<path d="M216.917 633.729C217.198 631.901 216.35 630.254 215.022 630.051C213.694 629.848 212.39 631.166 212.108 632.994C211.827 634.822 212.676 636.468 214.004 636.671C215.332 636.874 216.636 635.557 216.917 633.729Z" stroke="#031F43" stroke-width="2" stroke-miterlimit="10" stroke-linecap="round" stroke-linejoin="round"/>
<path d="M49.2228 689.028C49.5039 687.2 48.6552 685.553 47.3273 685.351C45.9995 685.148 44.6952 686.465 44.4141 688.293C44.1331 690.121 44.9817 691.768 46.3096 691.971C47.6375 692.174 48.9418 690.856 49.2228 689.028Z" stroke="#031F43" stroke-width="2" stroke-miterlimit="10" stroke-linecap="round" stroke-linejoin="round"/>
<path d="M25.507 696.656C25.7881 694.827 24.9395 693.181 23.6116 692.978C22.2837 692.775 20.9794 694.093 20.6983 695.921C20.4173 697.749 21.266 699.395 22.5938 699.598C23.9217 699.801 25.226 698.484 25.507 696.656Z" stroke="#031F43" stroke-width="2" stroke-miterlimit="10" stroke-linecap="round" stroke-linejoin="round"/>
<path d="M223.023 582.546L182.172 586.795" stroke="#031F43" stroke-width="2" stroke-miterlimit="10" stroke-linecap="round" stroke-linejoin="round"/>
<path d="M165.482 580.814C165.609 580.421 195.434 578.608 195.434 578.608L151.293 563.032C151.293 563.032 114.971 564.591 114.832 564.198" stroke="#031F43" stroke-width="2" stroke-miterlimit="10" stroke-linecap="round" stroke-linejoin="round"/>
<path d="M197.287 660.786L237.848 677.968C241.01 679.319 243.049 682.425 243.049 685.843V692.274L132.958 732.595" stroke="#031F43" stroke-width="2" stroke-miterlimit="10" stroke-linecap="round" stroke-linejoin="round"/>
<path d="M241.532 683.649L111.322 732.595" stroke="#031F43" stroke-width="2" stroke-miterlimit="10" stroke-linecap="round" stroke-linejoin="round"/>
<path d="M172.165 482.066C172.165 482.066 166.026 505.98 157.977 526.995C149.927 548.01 148.027 556.034 148.027 556.034" stroke="#031F43" stroke-width="2" stroke-miterlimit="10" stroke-linecap="round" stroke-linejoin="round"/>
<path d="M186.538 258.418L41.3643 218.882" stroke="#45D62F" stroke-width="2" stroke-miterlimit="10" stroke-linecap="round" stroke-linejoin="round"/>
<path d="M217.174 259.642L72.3594 218.824" stroke="#45D62F" stroke-width="2" stroke-miterlimit="10" stroke-linecap="round" stroke-linejoin="round"/>
<path d="M175.779 266.766L85.042 265.97" stroke="#45D62F" stroke-width="2" stroke-miterlimit="10" stroke-linecap="round" stroke-linejoin="round"/>
<path d="M218.53 269.11L128.21 277.793" stroke="#45D62F" stroke-width="2" stroke-miterlimit="10" stroke-linecap="round" stroke-linejoin="round"/>
<path d="M449.286 152.408C450.821 152.408 452.065 151.167 452.065 149.637C452.065 148.106 450.821 146.865 449.286 146.865C447.75 146.865 446.506 148.106 446.506 149.637C446.506 151.167 447.75 152.408 449.286 152.408Z" fill="#031F43"/>
<path d="M448.405 149.683L440.112 161.495L446.332 163.654L449.425 150.445L448.405 149.683Z" fill="#031F43"/>
<path d="M377.719 171.148C377.719 171.148 316.98 168.908 310.471 174.035C303.962 179.173 520.588 280.184 520.588 280.184C520.588 280.184 526.981 269.953 508.125 246.756C489.269 223.559 474.246 210.961 474.246 210.961C474.246 210.961 437.993 176.61 424.187 172.788C410.369 168.966 377.719 171.148 377.719 171.148Z" fill="#347CE1"/>
<path d="M378.98 171.344C378.98 171.344 403.35 145.838 441.201 157.962C479.053 170.086 475.81 212.139 475.81 212.139C475.81 212.139 464.412 201.031 436.719 187.071C403.605 170.386 378.98 171.344 378.98 171.344Z" fill="#031F43"/>
<path d="M521.513 280.911C515.965 290.853 462.119 279.168 402.585 251.098C343.028 223.016 302.084 188.457 307.366 176.367C311.918 165.941 368.116 174.485 427.256 203.387C490.38 234.239 528.162 269.018 521.513 280.911Z" fill="#F3B63F"/>
<path d="M364.48 212.993C364.48 212.993 384.042 211.238 415.303 228.004C444.201 243.5 453.85 258.995 453.85 258.995C453.85 258.995 440.032 262.009 430.407 261.778C405.597 261.178 385.629 254.146 369.738 227.311C364.364 218.236 364.48 212.993 364.48 212.993Z" fill="#031F43"/>
<path d="M370.826 238.754L289.379 300.633" stroke="#45D62F" stroke-width="2" stroke-miterlimit="10" stroke-linecap="round" stroke-linejoin="round"/>
<path d="M302.826 337.502L374.359 247.899" stroke="#45D62F" stroke-width="2" stroke-miterlimit="10" stroke-linecap="round" stroke-linejoin="round"/>
<path d="M408.087 265.866L374.822 562.986" stroke="#45D62F" stroke-width="2" stroke-miterlimit="10" stroke-linecap="round" stroke-linejoin="round"/>
<path d="M422.16 264.861L452.402 446.537" stroke="#45D62F" stroke-width="2" stroke-miterlimit="10" stroke-linecap="round" stroke-linejoin="round"/>
</g>
</g>
<defs>
<clipPath id="clip0_1057_73348">
<rect width="666" height="851" fill="white"/>
</clipPath>
<clipPath id="clip1_1057_73348">
<rect width="527" height="754" fill="white" transform="translate(-5 50)"/>
</clipPath>
</defs>
</svg>
