<svg width="657" height="258" viewBox="0 0 657 258" fill="none" xmlns="http://www.w3.org/2000/svg">
<path d="M56.3209 203.8C48.0009 203.8 40.4276 202.2 33.6009 199C26.8809 195.693 21.0676 191.32 16.1609 185.88C11.3609 180.44 7.62761 174.307 4.96094 167.48C2.29427 160.547 0.960938 153.453 0.960938 146.2C0.960938 138.627 2.34761 131.427 5.12094 124.6C8.00094 117.667 11.8942 111.533 16.8009 106.2C21.8142 100.76 27.6809 96.4933 34.4009 93.4C41.2276 90.2 48.6942 88.6 56.8009 88.6C65.0142 88.6 72.4809 90.2533 79.2009 93.56C86.0276 96.8667 91.8409 101.293 96.6409 106.84C101.441 112.387 105.174 118.573 107.841 125.4C110.508 132.227 111.841 139.267 111.841 146.52C111.841 153.987 110.454 161.187 107.681 168.12C104.908 174.947 101.014 181.08 96.0009 186.52C91.0942 191.853 85.2276 196.067 78.4009 199.16C71.6809 202.253 64.3209 203.8 56.3209 203.8ZM56.4809 184.28C61.8142 184.28 66.5609 183.213 70.7209 181.08C74.8809 178.84 78.3476 175.907 81.1209 172.28C83.8942 168.547 85.9742 164.44 87.3609 159.96C88.8542 155.373 89.6009 150.787 89.6009 146.2C89.6009 141.293 88.8009 136.547 87.2009 131.96C85.7076 127.373 83.5209 123.32 80.6409 119.8C77.8676 116.28 74.4009 113.453 70.2409 111.32C66.1876 109.187 61.6009 108.12 56.4809 108.12C51.0409 108.12 46.2409 109.24 42.0809 111.48C38.0276 113.613 34.6142 116.547 31.8409 120.28C29.0676 123.907 26.9342 127.96 25.4409 132.44C24.0542 136.92 23.3609 141.507 23.3609 146.2C23.3609 151.107 24.1076 155.853 25.6009 160.44C27.0942 165.027 29.2276 169.08 32.0009 172.6C34.8809 176.12 38.3476 178.947 42.4009 181.08C46.5609 183.213 51.2542 184.28 56.4809 184.28ZM54.2409 160.92H75.0409L112.481 203H91.6809L54.2409 160.92ZM125.242 171.64V119.16H146.682V167C146.682 173.4 147.856 178.253 150.202 181.56C152.549 184.76 156.016 186.36 160.602 186.36C163.376 186.36 166.096 185.827 168.762 184.76C171.536 183.587 174.042 181.88 176.282 179.64C178.629 177.4 180.602 174.573 182.202 171.16V119.16H203.642V179C203.642 181.24 204.016 182.84 204.762 183.8C205.616 184.76 206.949 185.347 208.762 185.56V203C206.629 203.32 204.816 203.533 203.322 203.64C201.936 203.853 200.656 203.96 199.482 203.96C195.642 203.96 192.496 203.107 190.042 201.4C187.696 199.587 186.309 197.133 185.882 194.04L185.402 187.32C181.669 192.973 176.869 197.293 171.002 200.28C165.136 203.16 158.682 204.6 151.642 204.6C143.002 204.6 136.442 201.827 131.962 196.28C127.482 190.627 125.242 182.413 125.242 171.64ZM224.449 203V119.16H245.889V203H224.449ZM224.449 107.48V86.2H245.889V107.48H224.449ZM259.13 189.88L305.37 134.2H261.05V119.16H328.41V132.28L282.49 187.96H329.21V203H259.13V189.88Z" fill="black"/>
<path d="M392.651 91.0453L412.739 87.0577L432.772 121.415L438.32 81.9797L458.251 78.0233L449.167 132.515L470.332 165.179L484.712 72.4445L508.252 67.7715L485.801 188.045L467.125 191.752L438.224 148.879L428.048 199.509L409.372 203.217L342.84 100.607L366.067 95.9963L414.933 176.176L421.703 137.967L392.651 91.0453ZM539.255 177.434L522.931 95.1984L543.961 91.0238L560.285 173.259L539.255 177.434ZM520.657 83.7419L516.513 62.8692L537.543 58.6946L541.686 79.5674L520.657 83.7419ZM570.718 157.812L605.232 94.1945L561.76 102.824L558.832 88.0718L624.902 74.9563L627.457 87.8252L593.257 151.381L639.083 142.284L642.011 157.036L573.273 170.681L570.718 157.812Z" fill="black"/>
<path d="M528.5 87C537.06 87 544 80.0604 544 71.5C544 62.9396 537.06 56 528.5 56C519.94 56 513 62.9396 513 71.5C513 80.0604 519.94 87 528.5 87Z" fill="#FF5613"/>
</svg>
